<?xml version="1.0" encoding="utf-8"?>
<!-- Generator: Adobe Illustrator 26.0.2, SVG Export Plug-In . SVG Version: 6.00 Build 0)  -->
<svg version="1.1" id="Layer_1" xmlns="http://www.w3.org/2000/svg" xmlns:xlink="http://www.w3.org/1999/xlink" x="0px" y="0px"
	 viewBox="0 0 800 269" style="enable-background:new 0 0 800 269;" xml:space="preserve">
<style type="text/css">
	.st0{fill:#828282;}
	.st1{opacity:0.4;}
	.st2{fill:#FFFFFF;}
</style>
<rect y="0" class="st0" width="800" height="269"/>
<g class="st1">
	<path class="st2" d="M730,115.9c-6.6,1.2-13.5,1.1-20.2-0.1c-6.7-1.2-13.1-3.5-19.3-6.1c-12.3-5.3-23.9-11.9-35.6-18.2l-8.7-4.8
		l-4.4-2.2c-1.5-0.7-3-1.4-4.4-2.1c-6-2.6-12.1-4.8-18.4-6.4c-12.6-3.1-26-3.5-38.8-0.5l-0.3-1.2c6.3-2.2,13-3.4,19.8-3.7
		c1.7-0.1,3.4-0.1,5.1-0.1c1.7,0.1,3.4,0.1,5.1,0.3c1.7,0.2,3.4,0.3,5,0.6c1.7,0.2,3.3,0.5,5,0.9c6.6,1.4,13.1,3.6,19.3,6.3
		c1.5,0.7,3.1,1.3,4.6,2.1l4.5,2.3l8.7,4.8l17.4,9.7c5.8,3.2,11.6,6.3,17.6,9.1c6,2.8,12.1,5.1,18.4,6.5c6.3,1.5,12.9,1.8,19.4,1.1
		L730,115.9z"/>
	<path class="st2" d="M716,83c-3.7,0.1-7.4,0.5-11,1.2c-3.6,0.7-7.2,1.7-10.7,2.8c-7,2.3-13.8,5.5-20.5,8.8
		c-13.4,6.7-26.7,13.8-41.2,18.7c-7.2,2.5-14.5,4.5-22,5.8c-3.8,0.6-7.5,1.2-11.4,1.4c-3.8,0.2-7.6,0.3-11.5,0.1
		c-7.6-0.4-15.3-1.8-22.4-4.6c-3.6-1.4-7-3.2-10.2-5.3c-3.2-2.1-6.2-4.6-8.7-7.6l1.3-1.1c5.1,5.2,11.7,8.9,18.6,11.3
		c6.9,2.4,14.2,3.6,21.6,3.8c7.4,0.2,14.7-0.6,22-1.9c7.3-1.4,14.4-3.3,21.4-5.8c7-2.4,13.8-5.4,20.6-8.5l20.3-9.7
		c6.8-3.1,13.9-6.1,21.2-8.2c7.3-2,15-3.1,22.6-2.7L716,83z"/>
</g>
</svg>
