<?xml version="1.0" encoding="utf-8"?>
<!-- Generator: Adobe Illustrator 26.0.2, SVG Export Plug-In . SVG Version: 6.00 Build 0)  -->
<svg version="1.1" id="Layer_1" xmlns="http://www.w3.org/2000/svg" xmlns:xlink="http://www.w3.org/1999/xlink" x="0px" y="0px"
	 viewBox="0 0 800 89" style="enable-background:new 0 0 800 89;" xml:space="preserve">
<style type="text/css">
	.st0{fill:#828282;}
	.st1{fill:#E0E0E0;}
</style>
<rect x="0.1" y="-0.3" class="st0" width="799.8" height="89"/>
<g>
	<g>
		<path class="st1" d="M58.5,26.1v1.7H51v-13h2.7v11.4h1C56.2,26.2,57.2,26.2,58.5,26.1z"/>
		<path class="st1" d="M59.8,15.1c0-0.8,0.5-1.4,1.6-1.4c1.1,0,1.6,0.6,1.6,1.4c0,0.8-0.6,1.4-1.6,1.4C60.3,16.5,59.8,16,59.8,15.1z
			 M60.1,18.1h2.6v9.7h-2.6V18.1z"/>
		<path class="st1" d="M69.2,23.3h-0.9v4.5h-2.6V13.9h2.6v8h1.1c1.1-1.1,2.2-2.7,2.8-3.8h2.4c-0.9,1.2-2.2,2.8-3.6,3.9l3.8,5.8h-2.8
			L69.2,23.3z"/>
		<path class="st1" d="M85.8,22.2v5.6h-2.6v-5.3c0-1.7-0.4-3.1-1.8-3.1c-1.5,0-2.4,1.5-2.4,3.6v4.8h-2.6V13.9H79v5.5
			c0.7-1.1,1.9-1.6,3.1-1.6C84.7,17.8,85.8,19.6,85.8,22.2z"/>
		<path class="st1" d="M88.3,15.1c0-0.8,0.5-1.4,1.6-1.4c1.1,0,1.6,0.6,1.6,1.4c0,0.8-0.6,1.4-1.6,1.4C88.8,16.5,88.3,16,88.3,15.1z
			 M88.5,18.1h2.6v9.7h-2.6V18.1z"/>
		<path class="st1" d="M100.1,27.1c-0.9,0.8-1.7,1-2.6,1c-2.2,0-2.9-1.6-2.9-3.9v-4.9h-1.7v-1.3h1.7v-2.7h2.6v2.7h2.5v1.3h-2.5V24
			c0,1.5,0.1,2.6,1.1,2.6c0.4,0,0.8-0.1,1.2-0.5L100.1,27.1z"/>
		<path class="st1" d="M111.4,22.2v5.6h-2.6v-5.3c0-1.7-0.4-3.1-1.8-3.1c-1.5,0-2.4,1.5-2.4,3.6v4.8H102V13.9h2.6v5.5
			c0.7-1.1,1.9-1.6,3.1-1.6C110.3,17.8,111.4,19.6,111.4,22.2z"/>
		<path class="st1" d="M122.2,22v5.8h-1.8l-0.4-1.5c-0.7,1.3-2,1.8-3.4,1.8c-2,0-3.4-1.1-3.4-3c0-2.3,1.8-3.4,4.6-3.4
			c0.6,0,1.2,0,1.8,0.1v-0.2c0-1.5-0.5-2.5-2.2-2.5c-0.9,0-1.9,0.3-2.9,1l-0.7-1.2c1.1-0.8,2.9-1.2,4.1-1.2
			C121.1,17.8,122.2,19.5,122.2,22z M119.7,23.5V23c-0.4-0.1-0.9-0.1-1.4-0.1c-1.5,0-2.6,0.7-2.6,2c0,1.1,0.8,1.7,1.7,1.7
			C118.7,26.6,119.7,25.5,119.7,23.5z"/>
		<path class="st1" d="M128.8,26.7l0.9-1.4c1.1,0.9,2.2,1.3,3.3,1.3c1.4,0,2.4-0.6,2.4-1.8c0-1-0.7-1.6-2.2-2.3l-1.7-0.9
			c-1.7-0.9-2.4-1.9-2.4-3.5c0-2.3,2.1-3.6,4.7-3.6c1.6,0,2.9,0.4,3.8,1l-0.7,1.4c-1-0.7-1.9-1-3.1-1c-1.3,0-2.2,0.6-2.2,1.6
			c0,0.9,0.6,1.4,1.9,2l1.9,1c1.8,0.9,2.5,2.1,2.5,3.7c0,2.4-1.9,4-4.9,4C131.5,28.1,129.9,27.7,128.8,26.7z"/>
		<path class="st1" d="M149.5,22.2v5.6h-2.6v-5.3c0-1.7-0.4-3.1-1.8-3.1c-1.5,0-2.4,1.5-2.4,3.6v4.8h-2.6V13.9h2.6v5.5
			c0.7-1.1,1.9-1.6,3.1-1.6C148.4,17.8,149.5,19.6,149.5,22.2z"/>
		<path class="st1" d="M152,15.1c0-0.8,0.5-1.4,1.6-1.4c1.1,0,1.6,0.6,1.6,1.4c0,0.8-0.6,1.4-1.6,1.4C152.5,16.5,152,16,152,15.1z
			 M152.2,18.1h2.6v9.7h-2.6V18.1z"/>
		<path class="st1" d="M166.2,18.1c-1.2,3.1-2.5,6.7-4,9.7h-1.6l-4-9.7h2.8l2.7,7c0.8-2.3,1.5-4.8,2-7H166.2z"/>
		<path class="st1" d="M183.1,22.1v5.7h-2.6v-5.6c0-1.5-0.2-2.9-1.6-2.9c-1.1,0-2.1,1-2.1,3v5.5h-2.6v-5.6c0-1.5-0.2-2.9-1.7-2.9
			c-1.1,0-2.1,1.1-2.1,3v5.4h-2.6v-9.7h1.8l0.4,1.5c0.7-1.2,2-1.9,3.4-1.9c1.5,0,2.5,0.7,3,1.9c0.7-1.3,2-1.9,3.3-1.9
			C182.2,17.8,183.1,19.5,183.1,22.1z"/>
		<path class="st1" d="M194.2,22v5.8h-1.8l-0.4-1.5c-0.7,1.3-2,1.8-3.4,1.8c-2,0-3.4-1.1-3.4-3c0-2.3,1.8-3.4,4.6-3.4
			c0.6,0,1.2,0,1.8,0.1v-0.2c0-1.5-0.5-2.5-2.2-2.5c-0.9,0-1.9,0.3-2.9,1l-0.7-1.2c1.1-0.8,2.9-1.2,4.1-1.2
			C193,17.8,194.2,19.5,194.2,22z M191.6,23.5V23c-0.4-0.1-0.9-0.1-1.4-0.1c-1.5,0-2.6,0.7-2.6,2c0,1.1,0.8,1.7,1.7,1.7
			C190.7,26.6,191.6,25.5,191.6,23.5z"/>
		<path class="st1" d="M206,18.1v8.7c0,3.6-1.8,5.4-5.1,5.4c-1.3,0-2.4-0.2-3.5-0.9L198,30c1.1,0.6,1.9,0.8,2.9,0.8
			c2,0,2.7-1.2,2.7-3.3v-1.2c-0.5,1.1-1.7,1.8-3.1,1.8c-2.4,0-3.6-1.6-3.6-4.4v-5.5h2.6v5.2c0,1.7,0.4,3,1.8,3
			c1.3,0,2.3-1.3,2.3-3.3v-5H206z"/>
		<path class="st1" d="M220.2,12.2V33h-1.4V12.2H220.2z"/>
		<path class="st1" d="M245.7,27.8l-0.5-10.7l-4.9,9.7h-0.4l-4.9-9.7l-0.5,10.6h-0.7l0.9-12.7h0.6l5.2,10.4l5.3-10.4h0.6l0.7,12.7
			H245.7z"/>
		<path class="st1" d="M257.2,22v5.8h-0.6l-0.5-1.8c-0.6,1.4-1.8,2.1-3.3,2.1c-1.7,0-3.1-0.9-3.1-2.8c0-2.1,1.8-3.1,4.5-3.1
			c0.6,0,1.3,0,2,0.2v-0.5c0-1.9-0.4-3.2-2.5-3.2c-1.1,0-2.1,0.4-3,1.2l-0.4-0.5c0.9-0.7,2.1-1.2,3.5-1.2
			C256,18.1,257.2,19.2,257.2,22z M256.2,23.8v-1c-0.6-0.1-1.2-0.1-1.7-0.1c-2.3,0-3.6,0.9-3.6,2.6c0,1.4,0.8,2.2,2.4,2.2
			C254.7,27.4,256.2,26.2,256.2,23.8z"/>
		<path class="st1" d="M265.2,18.3v0.9c-0.2-0.1-0.5-0.1-0.7-0.1c-1.9,0-2.9,1.3-2.9,3.6v5.1h-1.1v-9.4h0.6l0.5,1.9
			c0.4-1.1,1.6-2,2.9-2C264.8,18.2,265,18.2,265.2,18.3z"/>
		<path class="st1" d="M269.5,22.9h-1.2v4.9h-1.1V14.2h1.1v8.3h1.3c1.3-1.3,2.3-2.4,3.4-4.1h1.1c-1.5,1.8-2.9,3.2-3.9,4.1l4.3,5.3
			h-1.1L269.5,22.9z"/>
		<path class="st1" d="M283.8,22.7H277c0,2.5,1,4.8,3.6,4.8c1.2,0,1.9-0.3,2.6-0.9l0.3,0.4c-0.7,0.6-1.8,1-3.2,1
			c-3.2,0-4.4-2.5-4.4-5c0-2.5,1.5-4.9,4.3-4.9c2.8,0,3.8,2.1,3.8,4.2C283.9,22.4,283.9,22.6,283.8,22.7z M277,22.3h5.7
			c0-0.2,0-0.4,0-0.6c0-1.3-0.5-3.2-2.6-3.2C278.2,18.5,277,20.3,277,22.3z"/>
		<path class="st1" d="M291.6,27.3c-0.6,0.5-1.2,0.7-1.9,0.7c-2.1,0-2.5-1.8-2.5-4v-5.3h-2v-0.4h2v-2.5h1.1v2.5h3.1v0.4h-3.1v5
			c0,2,0.2,3.8,1.8,3.8c0.4,0,1.1-0.3,1.4-0.6L291.6,27.3z"/>
		<path class="st1" d="M293.6,15.6c0-0.5,0.3-0.8,0.8-0.8c0.5,0,0.8,0.3,0.8,0.8c0,0.5-0.3,0.8-0.8,0.8
			C294,16.3,293.6,16,293.6,15.6z M293.9,18.4h1.1v9.4h-1.1V18.4z"/>
		<path class="st1" d="M306.5,22.1v5.6h-1.1v-5.2c0-1.4,0-3.9-2.4-3.9c-1.9,0-3.1,1.6-3.1,4.6v4.5h-1.1v-9.4h0.6l0.5,1.8
			c0.7-1.5,2.1-2.1,3.3-2.1C305.5,18.1,306.5,19.7,306.5,22.1z"/>
		<path class="st1" d="M317.5,18.4v8.3c0,3.3-1.5,5.2-4.4,5.2c-1.2,0-1.9-0.3-2.6-0.7l0.3-0.6c0.7,0.5,1.6,0.7,2.3,0.7
			c2.6,0,3.4-1.7,3.4-4.4v-1.3c-0.5,1.3-1.7,2.1-3.4,2.1c-2.3,0-3.9-1.9-3.9-4.8c0-3.4,2.2-5,4.3-5c1.5,0,2.4,0.6,3,1.5l0.3-1.3
			H317.5z M316.5,23.1v-2.6c-0.8-1.4-1.9-1.9-2.9-1.9c-2.1,0-3.2,2.2-3.2,4.6c0,2.1,1.1,4.3,3,4.3C315.2,27.4,316.5,25.9,316.5,23.1
			z"/>
		<path class="st1" d="M325,21.6c0-4.4,2.9-6.8,6.3-6.8c1.2,0,2.5,0.2,3.5,0.7l-0.3,0.6c-1-0.6-2.1-0.9-3.2-0.9c-3.1,0-5,2.7-5,6.1
			c0,3.6,1.9,6.1,4.9,6.1c1.3,0,2.4-0.3,3.4-1.1l0.3,0.4c-1.1,0.8-2.3,1.1-3.7,1.1C327.5,28.1,325,25.8,325,21.6z"/>
		<path class="st1" d="M336.4,23.2c0-3.2,2.1-5.1,4.5-5.1c2.5,0,4.4,1.6,4.4,4.9c0,3.1-2.1,5.1-4.5,5.1
			C338.3,28.1,336.4,26.4,336.4,23.2z M344.1,23.1c0-2.4-1-4.5-3.2-4.5c-2.2,0-3.3,2.1-3.3,4.6c0,2.4,1,4.5,3.2,4.5
			C343,27.6,344.1,25.6,344.1,23.1z"/>
		<path class="st1" d="M347.5,23.2c0-3.2,2.1-5.1,4.5-5.1c2.5,0,4.4,1.6,4.4,4.9c0,3.1-2.1,5.1-4.5,5.1
			C349.4,28.1,347.5,26.4,347.5,23.2z M355.2,23.1c0-2.4-1-4.5-3.2-4.5c-2.2,0-3.3,2.1-3.3,4.6c0,2.4,1,4.5,3.2,4.5
			C354.1,27.6,355.2,25.6,355.2,23.1z"/>
		<path class="st1" d="M363.9,18.3v0.9c-0.2-0.1-0.5-0.1-0.7-0.1c-1.9,0-2.9,1.3-2.9,3.6v5.1h-1.1v-9.4h0.6l0.5,1.9
			c0.4-1.1,1.6-2,2.9-2C363.6,18.2,363.8,18.2,363.9,18.3z"/>
		<path class="st1" d="M373.4,14.2v13.6h-0.6l-0.5-1.8c-0.5,1.2-1.7,2.1-3.2,2.1c-2.4,0-4-1.9-4-4.9c0-3.5,2.2-5.1,4.3-5.1
			c1.4,0,2.3,0.5,3,1.4v-5.4H373.4z M372.4,23.2v-2.7c-0.8-1.4-1.9-1.8-2.8-1.8c-2.2,0-3.2,2.3-3.2,4.6c0,2.1,1.1,4.3,3,4.3
			C371.1,27.6,372.4,25.9,372.4,23.2z"/>
		<path class="st1" d="M377,15.6c0-0.5,0.3-0.8,0.8-0.8c0.5,0,0.8,0.3,0.8,0.8c0,0.5-0.3,0.8-0.8,0.8C377.3,16.3,377,16,377,15.6z
			 M377.3,18.4h1.1v9.4h-1.1V18.4z"/>
		<path class="st1" d="M389.9,22.1v5.6h-1.1v-5.2c0-1.4,0-3.9-2.4-3.9c-1.9,0-3.1,1.6-3.1,4.6v4.5h-1.1v-9.4h0.6l0.5,1.8
			c0.7-1.5,2.1-2.1,3.3-2.1C388.9,18.1,389.9,19.7,389.9,22.1z"/>
		<path class="st1" d="M400,22v5.8h-0.6l-0.5-1.8c-0.6,1.4-1.8,2.1-3.3,2.1c-1.7,0-3.1-0.9-3.1-2.8c0-2.1,1.8-3.1,4.5-3.1
			c0.6,0,1.3,0,2,0.2v-0.5c0-1.9-0.4-3.2-2.5-3.2c-1.1,0-2.1,0.4-3,1.2l-0.4-0.5c0.9-0.7,2.1-1.2,3.5-1.2
			C398.7,18.1,400,19.2,400,22z M398.9,23.8v-1c-0.6-0.1-1.2-0.1-1.7-0.1c-2.3,0-3.6,0.9-3.6,2.6c0,1.4,0.8,2.2,2.4,2.2
			C397.4,27.4,398.9,26.2,398.9,23.8z"/>
		<path class="st1" d="M408.2,27.3c-0.6,0.5-1.2,0.7-1.9,0.7c-2.1,0-2.5-1.8-2.5-4v-5.3h-2v-0.4h2v-2.5h1.1v2.5h3.1v0.4h-3.1v5
			c0,2,0.2,3.8,1.8,3.8c0.4,0,1.1-0.3,1.4-0.6L408.2,27.3z"/>
		<path class="st1" d="M409.4,23.2c0-3.2,2.1-5.1,4.5-5.1c2.5,0,4.4,1.6,4.4,4.9c0,3.1-2.1,5.1-4.5,5.1
			C411.3,28.1,409.4,26.4,409.4,23.2z M417.1,23.1c0-2.4-1-4.5-3.2-4.5c-2.2,0-3.3,2.1-3.3,4.6c0,2.4,1,4.5,3.2,4.5
			C416,27.6,417.1,25.6,417.1,23.1z"/>
		<path class="st1" d="M425.8,18.3v0.9c-0.2-0.1-0.5-0.1-0.7-0.1c-1.9,0-2.9,1.3-2.9,3.6v5.1h-1.1v-9.4h0.6l0.5,1.9
			c0.4-1.1,1.6-2,2.9-2C425.5,18.2,425.7,18.2,425.8,18.3z"/>
		<path class="st1" d="M58.6,66.5c0,2.6-2.2,4-5.6,4h-0.6v5.2h-1.1V63c0.7-0.1,1.7-0.2,2.2-0.2C56.6,62.9,58.6,63.8,58.6,66.5z
			 M57.3,66.5c0-2-1.2-3.2-4-3.2c-0.4,0-0.7,0-1,0.1V70c0.2,0,0.4,0,0.6,0C56,70.1,57.3,68.6,57.3,66.5z"/>
		<path class="st1" d="M68.5,70.1v5.6h-1.1v-5.2c0-1.4,0-3.9-2.4-3.9c-1.9,0-3.1,1.6-3.1,4.6v4.5h-1.1V62.1h1.1v6.2
			c0.7-1.6,2.1-2.3,3.3-2.3C67.5,66,68.5,67.7,68.5,70.1z"/>
		<path class="st1" d="M71.1,71.2c0-3.2,2.1-5.1,4.5-5.1c2.5,0,4.4,1.6,4.4,4.9c0,3.1-2.1,5.1-4.5,5.1C72.9,76,71.1,74.3,71.1,71.2z
			 M78.8,71c0-2.4-1-4.5-3.2-4.5c-2.2,0-3.3,2.1-3.3,4.6c0,2.4,1,4.5,3.2,4.5C77.6,75.6,78.8,73.5,78.8,71z"/>
		<path class="st1" d="M90.6,70.1v5.6h-1.1v-5.2c0-1.4,0-3.9-2.4-3.9c-1.9,0-3.1,1.6-3.1,4.6v4.5h-1.1v-9.4h0.6l0.5,1.8
			c0.7-1.5,2.1-2.1,3.3-2.1C89.6,66,90.6,67.7,90.6,70.1z"/>
		<path class="st1" d="M101.4,70.7h-6.9c0,2.5,1,4.8,3.6,4.8c1.2,0,1.9-0.3,2.6-0.9l0.3,0.4c-0.7,0.6-1.8,1-3.2,1
			c-3.2,0-4.4-2.5-4.4-5c0-2.5,1.5-4.9,4.3-4.9c2.8,0,3.8,2.1,3.8,4.2C101.4,70.4,101.4,70.5,101.4,70.7z M94.5,70.3h5.7
			c0-0.2,0-0.4,0-0.6c0-1.3-0.5-3.2-2.6-3.2C95.7,66.4,94.5,68.3,94.5,70.3z"/>
		<path class="st1" d="M103.3,68.4c0-0.5,0.3-0.9,0.9-0.9c0.5,0,0.9,0.4,0.9,0.9c0,0.5-0.3,0.9-0.9,0.9
			C103.7,69.3,103.3,68.9,103.3,68.4z M103.3,75.1c0-0.5,0.3-0.9,0.9-0.9c0.5,0,0.9,0.4,0.9,0.9c0,0.5-0.3,0.9-0.9,0.9
			C103.7,76,103.3,75.6,103.3,75.1z"/>
		<path class="st1" d="M117.6,64.6v4.9h4.7v1.3h-4.7v4.9h-1.3v-4.9h-4.7v-1.3h4.7v-4.9H117.6z"/>
		<path class="st1" d="M133.3,68.8c0,4-1.9,7.2-5.7,7.2c-0.8,0-1.6-0.1-2.4-0.5l0.4-0.5c0.9,0.5,1.7,0.5,2.1,0.5
			c2.9,0,4.3-2.1,4.4-6.4c-0.7,1.1-2,1.9-3.6,1.9c-2.5,0-4-1.4-4-3.9c0-2.7,1.9-4.3,4.4-4.3C132.5,62.8,133.3,66,133.3,68.8z
			 M132.1,68.3c-0.1-2.9-1-5.1-3.2-5.1c-2.3,0-3.2,2.1-3.2,3.8c0,2,1,3.5,3,3.5C130,70.4,131.3,69.7,132.1,68.3z"/>
		<path class="st1" d="M138.7,63v12.7h-1.1V64.8c-0.8,0.4-1.5,0.7-2.4,0.9l-0.1-0.2c1.4-0.6,2.3-1.3,3.3-2.5H138.7z"/>
		<path class="st1" d="M153.8,63v1.1c-2.5,2.4-4.2,6.2-4.2,10.7v0.9h-1.2V75c0-3.3,1.5-7.5,5-11h-7.2V63H153.8z"/>
		<path class="st1" d="M162.5,63v1.1c-2.5,2.4-4.2,6.2-4.2,10.7v0.9h-1.2V75c0-3.3,1.5-7.5,5-11h-7.2V63H162.5z"/>
		<path class="st1" d="M172.5,71.7c0,2.7-2,4.3-4.4,4.3c-3.4,0-4.4-3-4.4-6c0-4,2.1-7.2,5.8-7.2c0.8,0,1.6,0.1,2.4,0.5l-0.4,0.5
			c-0.9-0.5-1.7-0.5-2.1-0.5c-2.6,0-4.4,2-4.5,6c0.8-0.9,2.2-1.6,3.7-1.6C170.9,67.7,172.5,69.1,172.5,71.7z M171.3,71.9
			c0-2.2-1-3.7-3-3.7c-1.3,0-2.6,0.7-3.5,1.8c0,3.4,1.1,5.6,3.2,5.6C170.3,75.6,171.3,73.4,171.3,71.9z"/>
		<path class="st1" d="M174.9,69.3c0-3.5,1.7-6.6,4.5-6.6c2.9,0,4.1,3.1,4.1,6.6c0,3.4-1.7,6.7-4.5,6.7
			C176.1,76,174.9,72.8,174.9,69.3z M182.3,69.3c0-2.6-0.6-6.1-3-6.1c-2.6,0-3.3,3.5-3.3,6.1c0,2.6,0.6,6.2,3,6.2
			C181.7,75.5,182.3,71.9,182.3,69.3z"/>
		<path class="st1" d="M192.8,63v1.1c-2.5,2.4-4.2,6.2-4.2,10.7v0.9h-1.2V75c0-3.3,1.5-7.5,5-11h-7.2V63H192.8z"/>
		<path class="st1" d="M206.3,63v1.1c-2.5,2.4-4.2,6.2-4.2,10.7v0.9h-1.2V75c0-3.3,1.5-7.5,5-11h-7.2V63H206.3z"/>
		<path class="st1" d="M207.8,69.3c0-3.5,1.7-6.6,4.5-6.6c2.9,0,4.1,3.1,4.1,6.6c0,3.4-1.7,6.7-4.5,6.7
			C209.1,76,207.8,72.8,207.8,69.3z M215.3,69.3c0-2.6-0.6-6.1-3-6.1c-2.6,0-3.3,3.5-3.3,6.1c0,2.6,0.6,6.2,3,6.2
			C214.6,75.5,215.3,71.9,215.3,69.3z"/>
		<path class="st1" d="M222.3,63v12.7h-1.1V64.8c-0.8,0.4-1.5,0.7-2.4,0.9l-0.1-0.2c1.4-0.6,2.3-1.3,3.3-2.5H222.3z"/>
		<path class="st1" d="M228.7,63v12.7h-1.1V64.8c-0.8,0.4-1.5,0.7-2.4,0.9l-0.1-0.2c1.4-0.6,2.3-1.3,3.3-2.5H228.7z"/>
		<path class="st1" d="M239.7,71.9c0,2.7-2,4.1-4.3,4.1c-1.5,0-2.7-0.5-3.5-1.1l0.4-0.5c0.9,0.7,2,1.2,3.1,1.2c2,0,3.2-1.4,3.2-3.4
			c0-1.7-0.8-3.2-2.8-3.2c-0.6,0-1.3,0.1-1.9,0.4v-0.5c1.4-1.6,2.9-3.2,4.6-5h-6.1V63h6.9v0.9c-1.8,1.7-2.8,2.9-4.4,4.7
			c0.4-0.1,0.8-0.2,1.2-0.2C238.5,68.4,239.7,70.1,239.7,71.9z"/>
	</g>
</g>
<g>
	<text transform="matrix(1 0 0 1 47.9068 -96.2348)"><tspan x="0" y="0" class="st1" style="font-family:'FSSienaTrial-SemiBold'; font-size:20.9505px;">Likhitha Shivmay</tspan><tspan x="158.7" y="0" class="st1" style="font-family:'FSSienaTrial-Thin'; font-size:20.9505px;">  </tspan><tspan x="168.3" y="0" class="st1" style="font-family:'MyriadPro-Regular'; font-size:20.9505px;">|</tspan><tspan x="173.3" y="0" class="st1" style="font-family:'FSSienaTrial-Thin'; font-size:20.9505px;">  Marketing Coordinator</tspan><tspan x="0" y="48.1" class="st1" style="font-family:'FSSienaTrial-Thin'; font-size:20.9505px;">Phone: </tspan><tspan x="61.6" y="48.1" class="st1" style="font-family:'MyriadPro-Regular'; font-size:20.9505px;">+</tspan><tspan x="74.1" y="48.1" class="st1" style="font-family:'FSSienaTrial-Thin'; font-size:20.9505px;">91 77607 70113 </tspan></text>
</g>
</svg>
