<?xml version="1.0" encoding="utf-8"?>
<!-- Generator: Adobe Illustrator 26.0.2, SVG Export Plug-In . SVG Version: 6.00 Build 0)  -->
<svg version="1.1" id="Layer_1" xmlns="http://www.w3.org/2000/svg" xmlns:xlink="http://www.w3.org/1999/xlink" x="0px" y="0px"
	 viewBox="0 0 800 442" style="enable-background:new 0 0 800 442;" xml:space="preserve">
<style type="text/css">
	.st0{fill:#828282;}
	.st1{fill:#E0E0E0;}
	.st2{fill:#FFFFFF;}
</style>
<rect x="0.1" class="st0" width="799.8" height="441.4"/>
<g>
	<path class="st1" d="M57.3,215.5v0.6h-7v-12.7h6.9v0.6c-1.3-0.1-2.5-0.2-3.8-0.2h-2v5.6h1.3c1.1,0,2.3,0,3.4-0.1v0.6
		c-1.1-0.1-2.3-0.1-3.4-0.1h-1.3v5.8H54C54.9,215.7,56.3,215.6,57.3,215.5z"/>
	<path class="st1" d="M66.9,210.3v5.9h-0.6l-0.5-1.8c-0.6,1.4-1.8,2.1-3.3,2.1c-1.7,0-3.1-0.9-3.1-2.8c0-2.1,1.8-3.1,4.5-3.1
		c0.6,0,1.3,0,2,0.2v-0.5c0-1.9-0.4-3.2-2.5-3.2c-1.2,0-2.1,0.4-3,1.2l-0.4-0.5c0.9-0.7,2.1-1.2,3.5-1.2
		C65.6,206.4,66.9,207.5,66.9,210.3z M65.8,212.1v-1c-0.6-0.1-1.2-0.1-1.7-0.1c-2.3,0-3.6,0.9-3.6,2.6c0,1.4,0.8,2.2,2.4,2.2
		C64.3,215.7,65.8,214.6,65.8,212.1z"/>
	<path class="st1" d="M74.8,206.6v0.9c-0.2-0.1-0.5-0.1-0.7-0.1c-1.9,0-2.9,1.3-2.9,3.6v5.1h-1.1v-9.4h0.6l0.5,1.9
		c0.4-1.1,1.6-2,2.9-2C74.5,206.5,74.7,206.5,74.8,206.6z"/>
	<path class="st1" d="M81.8,215.6c-0.6,0.5-1.2,0.8-1.9,0.8c-2.1,0-2.5-1.8-2.5-4v-5.3h-2v-0.4h2v-2.5h1.1v2.5h3.1v0.4h-3.1v5
		c0,2.1,0.2,3.8,1.8,3.8c0.4,0,1.1-0.3,1.4-0.6L81.8,215.6z"/>
	<path class="st1" d="M91.7,210.4v5.7h-1.1v-5.2c0-1.4,0-3.9-2.4-3.9c-1.9,0-3.2,1.6-3.2,4.6v4.6H84v-13.7H85v6.2
		c0.7-1.7,2.1-2.3,3.3-2.3C90.7,206.4,91.7,208,91.7,210.4z"/>
	<path class="st1" d="M94.9,203.9c0-0.5,0.3-0.8,0.8-0.8c0.5,0,0.8,0.3,0.8,0.8c0,0.5-0.3,0.8-0.8,0.8S94.9,204.3,94.9,203.9z
		 M95.2,206.7h1.1v9.4h-1.1V206.7z"/>
	<path class="st1" d="M105.1,215.6c-0.6,0.5-1.2,0.8-1.9,0.8c-2.1,0-2.5-1.8-2.5-4v-5.3h-2v-0.4h2v-2.5h1.1v2.5h3.1v0.4h-3.1v5
		c0,2.1,0.2,3.8,1.8,3.8c0.4,0,1.1-0.3,1.4-0.6L105.1,215.6z"/>
	<path class="st1" d="M114.5,211.1h-6.9c0,2.5,1,4.8,3.6,4.8c1.2,0,1.9-0.3,2.7-0.9l0.3,0.4c-0.7,0.6-1.8,1-3.2,1
		c-3.2,0-4.4-2.5-4.4-5.1c0-2.5,1.5-4.9,4.3-4.9c2.8,0,3.8,2.1,3.8,4.2C114.6,210.7,114.6,210.9,114.5,211.1z M107.6,210.7h5.7
		c0-0.3,0-0.4,0-0.6c0-1.3-0.5-3.2-2.6-3.2C108.9,206.8,107.7,208.7,107.6,210.7z"/>
	<path class="st1" d="M116.7,211.5c0-2.8,1.9-5.1,4.8-5.1c1.2,0,1.9,0.3,2.6,0.7l-0.3,0.5c-0.6-0.5-1.4-0.8-2.2-0.8
		c-2.7,0-3.6,2.6-3.6,4.5c0,2.7,1.4,4.4,3.6,4.4c1,0,1.9-0.3,2.4-0.8l0.3,0.4c-0.6,0.6-1.8,1-2.9,1
		C118.4,216.4,116.7,214.4,116.7,211.5z"/>
	<path class="st1" d="M131.4,215.6c-0.6,0.5-1.2,0.8-1.9,0.8c-2.1,0-2.5-1.8-2.5-4v-5.3h-2v-0.4h2v-2.5h1.1v2.5h3.1v0.4H128v5
		c0,2.1,0.2,3.8,1.8,3.8c0.4,0,1.1-0.3,1.4-0.6L131.4,215.6z"/>
	<path class="st1" d="M132.8,215.5l0.3-0.6c1,0.7,1.9,0.9,2.8,0.9c1.3,0,2.3-0.7,2.3-1.8c0-1.2-0.9-1.6-2.1-2.2l-1.1-0.5
		c-1-0.5-1.9-1.2-1.9-2.4c0-1.5,1.3-2.5,3.2-2.5c0.9,0,1.7,0.1,2.6,0.6l-0.3,0.6c-0.9-0.6-1.5-0.7-2.3-0.7c-1.3,0-2.3,0.6-2.3,1.7
		c0,0.8,0.5,1.3,1.6,1.8l1.6,0.7c1.5,0.7,1.9,1.6,1.9,2.5c0,1.9-1.7,2.8-3.3,2.8C134.9,216.4,133.7,216.1,132.8,215.5z"/>
	<path class="st1" d="M154.6,206.9c0,2.6-2.2,4-5.6,4h-0.6v5.3h-1.1v-12.7c0.8-0.1,1.7-0.2,2.2-0.2
		C152.6,203.2,154.6,204.2,154.6,206.9z M153.3,206.9c0-2-1.2-3.2-4-3.2c-0.4,0-0.7,0-1,0.1v6.7c0.2,0,0.4,0,0.6,0
		C152,210.4,153.3,209,153.3,206.9z"/>
	<path class="st1" d="M161.4,206.6v0.9c-0.2-0.1-0.5-0.1-0.7-0.1c-1.9,0-2.9,1.3-2.9,3.6v5.1h-1.1v-9.4h0.6l0.5,1.9
		c0.4-1.1,1.6-2,2.9-2C161,206.5,161.2,206.5,161.4,206.6z"/>
	<path class="st1" d="M163.2,203.9c0-0.5,0.3-0.8,0.8-0.8c0.5,0,0.8,0.3,0.8,0.8c0,0.5-0.3,0.8-0.8,0.8S163.2,204.3,163.2,203.9z
		 M163.5,206.7h1.1v9.4h-1.1V206.7z"/>
	<path class="st1" d="M174.8,206.7c-0.9,2.6-2.6,6.9-3.8,9.4h-0.5l-3.7-9.4h1.2l3.1,8c0.9-1.8,2.3-6,2.8-8H174.8z"/>
	<path class="st1" d="M183.5,210.3v5.9h-0.6l-0.5-1.8c-0.6,1.4-1.8,2.1-3.3,2.1c-1.7,0-3.1-0.9-3.1-2.8c0-2.1,1.8-3.1,4.5-3.1
		c0.6,0,1.3,0,2,0.2v-0.5c0-1.9-0.4-3.2-2.5-3.2c-1.2,0-2.1,0.4-3,1.2l-0.4-0.5c0.9-0.7,2.1-1.2,3.5-1.2
		C182.3,206.4,183.5,207.5,183.5,210.3z M182.4,212.1v-1c-0.6-0.1-1.2-0.1-1.7-0.1c-2.3,0-3.6,0.9-3.6,2.6c0,1.4,0.8,2.2,2.4,2.2
		C180.9,215.7,182.4,214.6,182.4,212.1z"/>
	<path class="st1" d="M191.7,215.6c-0.6,0.5-1.2,0.8-1.9,0.8c-2.1,0-2.5-1.8-2.5-4v-5.3h-2v-0.4h2v-2.5h1.1v2.5h3.1v0.4h-3.1v5
		c0,2.1,0.2,3.8,1.8,3.8c0.4,0,1.1-0.3,1.4-0.6L191.7,215.6z"/>
	<path class="st1" d="M201.2,211.1h-6.9c0,2.5,1,4.8,3.6,4.8c1.2,0,1.9-0.3,2.7-0.9l0.3,0.4c-0.7,0.6-1.8,1-3.2,1
		c-3.2,0-4.4-2.5-4.4-5.1c0-2.5,1.5-4.9,4.3-4.9c2.8,0,3.8,2.1,3.8,4.2C201.2,210.7,201.2,210.9,201.2,211.1z M194.3,210.7h5.7
		c0-0.3,0-0.4,0-0.6c0-1.3-0.5-3.2-2.6-3.2C195.5,206.8,194.4,208.7,194.3,210.7z"/>
	<path class="st1" d="M215.6,215.4v0.7h-6.3v-12.7h1.1v12.2h1.3C212.7,215.6,214.4,215.5,215.6,215.4z"/>
	<path class="st1" d="M222.1,215.6c-0.6,0.5-1.2,0.8-1.9,0.8c-2.1,0-2.5-1.8-2.5-4v-5.3h-2v-0.4h2v-2.5h1.1v2.5h3.1v0.4h-3.1v5
		c0,2.1,0.2,3.8,1.8,3.8c0.4,0,1.1-0.3,1.4-0.6L222.1,215.6z"/>
	<path class="st1" d="M231.8,202.4v13.7h-0.6l-0.5-1.8c-0.5,1.2-1.7,2.1-3.2,2.1c-2.4,0-4-1.9-4-4.9c0-3.5,2.2-5.1,4.3-5.1
		c1.4,0,2.3,0.5,3,1.4v-5.4H231.8z M230.8,211.5v-2.7c-0.8-1.4-1.9-1.8-2.8-1.8c-2.2,0-3.2,2.3-3.2,4.7c0,2.1,1.2,4.3,3,4.3
		S230.8,214.3,230.8,211.5z"/>
	<path class="st1" d="M234.5,215.5c0-0.5,0.3-0.9,0.9-0.9c0.5,0,0.9,0.4,0.9,0.9c0,0.5-0.3,0.9-0.9,0.9
		C234.8,216.4,234.5,216,234.5,215.5z"/>
	<path class="st1" d="M60.4,238.7v12.7h-1.1V245h-7.8v6.4h-1.1v-12.7h1.1v5.9h7.8v-5.9H60.4z"/>
	<path class="st1" d="M63.4,246.8c0-3.2,2.1-5.1,4.5-5.1c2.5,0,4.4,1.7,4.4,4.9c0,3.2-2.1,5.1-4.5,5.1
		C65.3,251.7,63.4,250,63.4,246.8z M71.2,246.7c0-2.4-1-4.5-3.2-4.5c-2.2,0-3.3,2.1-3.3,4.6c0,2.4,1,4.5,3.2,4.5
		C70,251.3,71.2,249.2,71.2,246.7z"/>
	<path class="st1" d="M82.8,242v9.4h-0.6l-0.5-1.8c-0.7,1.5-2,2.1-3.2,2.1c-2.4,0-3.3-1.6-3.3-4V242h1.1v5.2c0,1.4,0,3.9,2.5,3.9
		c1.9,0,3.1-1.7,3.1-4.8V242H82.8z"/>
	<path class="st1" d="M85.7,250.8l0.3-0.6c1,0.7,1.9,0.9,2.8,0.9c1.3,0,2.3-0.7,2.3-1.8c0-1.2-0.9-1.6-2.1-2.2l-1.1-0.5
		c-1-0.5-1.9-1.2-1.9-2.4c0-1.5,1.3-2.5,3.2-2.5c0.9,0,1.7,0.1,2.6,0.6l-0.3,0.6c-0.9-0.6-1.5-0.7-2.3-0.7c-1.3,0-2.3,0.6-2.3,1.7
		c0,0.8,0.5,1.3,1.6,1.8l1.6,0.7c1.5,0.7,1.9,1.6,1.9,2.5c0,1.9-1.7,2.8-3.3,2.8C87.7,251.7,86.6,251.4,85.7,250.8z"/>
	<path class="st1" d="M102.2,246.4h-6.9c0,2.5,1,4.8,3.6,4.8c1.2,0,1.9-0.3,2.7-0.9l0.3,0.4c-0.7,0.6-1.8,1-3.2,1
		c-3.2,0-4.4-2.5-4.4-5.1c0-2.5,1.5-4.9,4.3-4.9c2.8,0,3.8,2.1,3.8,4.2C102.2,246,102.2,246.2,102.2,246.4z M95.3,246h5.7
		c0-0.3,0-0.4,0-0.6c0-1.3-0.5-3.2-2.6-3.2C96.5,242.1,95.4,244,95.3,246z"/>
	<path class="st1" d="M119.9,238.7v12.7h-0.6l-8.7-11v11h-0.5v-12.7h0.6l8.7,11v-11H119.9z"/>
	<path class="st1" d="M122.9,246.8c0-3.2,2.1-5.1,4.5-5.1c2.5,0,4.4,1.7,4.4,4.9c0,3.2-2.1,5.1-4.5,5.1
		C124.8,251.7,122.9,250,122.9,246.8z M130.6,246.7c0-2.4-1-4.5-3.2-4.5c-2.2,0-3.3,2.1-3.3,4.6c0,2.4,1,4.5,3.2,4.5
		C129.5,251.3,130.6,249.2,130.6,246.7z"/>
	<path class="st1" d="M133.7,246.4h3.7v0.5h-3.7V246.4z"/>
	<path class="st1" d="M147.5,238.7v12.7h-1.1v-10.9c-0.8,0.4-1.5,0.7-2.4,0.9l-0.1-0.3c1.4-0.6,2.3-1.3,3.3-2.5H147.5z"/>
	<path class="st1" d="M154,238.7v12.7h-1.1v-10.9c-0.8,0.4-1.5,0.7-2.4,0.9l-0.1-0.3c1.4-0.6,2.3-1.3,3.3-2.5H154z"/>
	<path class="st1" d="M158.8,251.4c0,1.5-0.8,2.4-2,2.9l-0.2-0.3c1-0.6,1.4-1.3,1.4-2.1c0-0.1,0-0.3-0.1-0.4
		c-0.1,0.1-0.3,0.2-0.5,0.2c-0.5,0-0.8-0.3-0.8-0.9c0-0.6,0.4-0.9,1-0.9C158.4,249.9,158.8,250.5,158.8,251.4z"/>
	<path class="st1" d="M172.9,251.4l-3.6-5.8c-0.3,0-0.6,0-0.9,0c-0.4,0-0.7,0-1.1,0v5.8h-1.1v-12.7c0.8-0.1,1.7-0.2,2.4-0.2
		c2.6,0,4.9,0.9,4.9,3.5c0,1.7-1.2,2.9-3,3.3l3.7,6H172.9z M172.2,242.1c0-2-0.9-3.2-3.7-3.2c-0.5,0-0.8,0-1.2,0.1v6.2
		c0.3,0,0.6,0,0.9,0C171.1,245.3,172.2,243.9,172.2,242.1z"/>
	<path class="st1" d="M176.9,239.2c0-0.5,0.3-0.8,0.8-0.8c0.5,0,0.8,0.3,0.8,0.8c0,0.5-0.3,0.8-0.8,0.8S176.9,239.6,176.9,239.2z
		 M177.2,242h1.1v9.4h-1.1V242z"/>
	<path class="st1" d="M181.3,246.8c0-2.8,1.9-5.1,4.8-5.1c1.2,0,1.9,0.3,2.6,0.7l-0.3,0.5c-0.6-0.5-1.4-0.8-2.2-0.8
		c-2.7,0-3.6,2.6-3.6,4.5c0,2.7,1.4,4.4,3.6,4.4c1,0,1.9-0.3,2.4-0.8l0.3,0.4c-0.6,0.6-1.8,1-2.9,1
		C183.1,251.7,181.3,249.7,181.3,246.8z"/>
	<path class="st1" d="M199,245.8v5.7h-1.1v-5.2c0-1.4,0-3.9-2.4-3.9c-1.9,0-3.2,1.6-3.2,4.6v4.6h-1.1v-13.7h1.1v6.2
		c0.7-1.7,2.1-2.3,3.3-2.3C198,241.7,199,243.3,199,245.8z"/>
	<path class="st1" d="M216.3,245.8v5.7h-1.1v-5.2c0-1.4,0-3.9-2.3-3.9c-1.8,0-2.9,1.6-2.9,4.6v4.6h-1.1v-5.2c0-1.4,0-3.9-2.3-3.9
		c-1.9,0-3.2,1.6-3.2,4.6v4.6h-1.1V242h0.6l0.5,1.8c0.7-1.5,2.1-2.1,3.3-2.1c1.7,0,2.6,0.9,3,2.5c0.7-1.8,2.1-2.5,3.4-2.5
		C215.4,241.7,216.3,243.3,216.3,245.8z"/>
	<path class="st1" d="M219.1,246.8c0-3.2,2.1-5.1,4.5-5.1c2.5,0,4.4,1.7,4.4,4.9c0,3.2-2.1,5.1-4.5,5.1
		C220.9,251.7,219.1,250,219.1,246.8z M226.8,246.7c0-2.4-1-4.5-3.2-4.5c-2.2,0-3.3,2.1-3.3,4.6c0,2.4,1,4.5,3.2,4.5
		C225.7,251.3,226.8,249.2,226.8,246.7z"/>
	<path class="st1" d="M238.6,245.8v5.7h-1.1v-5.2c0-1.4,0-3.9-2.4-3.9c-1.9,0-3.2,1.6-3.2,4.6v4.6h-1.1V242h0.6l0.5,1.8
		c0.7-1.5,2.1-2.1,3.3-2.1C237.6,241.7,238.6,243.3,238.6,245.8z"/>
	<path class="st1" d="M249.6,237.7v13.7H249l-0.5-1.8c-0.5,1.2-1.7,2.1-3.2,2.1c-2.4,0-4-1.9-4-4.9c0-3.5,2.2-5.1,4.3-5.1
		c1.4,0,2.3,0.5,3,1.4v-5.4H249.6z M248.6,246.8V244c-0.8-1.4-1.9-1.8-2.8-1.8c-2.2,0-3.2,2.3-3.2,4.7c0,2.1,1.2,4.3,3,4.3
		S248.6,249.6,248.6,246.8z"/>
	<path class="st1" d="M265.2,251.4l-3.6-5.8c-0.3,0-0.6,0-0.9,0c-0.4,0-0.7,0-1.1,0v5.8h-1.1v-12.7c0.8-0.1,1.7-0.2,2.4-0.2
		c2.6,0,4.9,0.9,4.9,3.5c0,1.7-1.2,2.9-3,3.3l3.7,6H265.2z M264.5,242.1c0-2-0.9-3.2-3.7-3.2c-0.5,0-0.8,0-1.2,0.1v6.2
		c0.3,0,0.6,0,0.9,0C263.4,245.3,264.5,243.9,264.5,242.1z"/>
	<path class="st1" d="M268.5,246.8c0-3.2,2.1-5.1,4.5-5.1c2.5,0,4.4,1.7,4.4,4.9c0,3.2-2.1,5.1-4.5,5.1
		C270.4,251.7,268.5,250,268.5,246.8z M276.3,246.7c0-2.4-1-4.5-3.2-4.5c-2.2,0-3.3,2.1-3.3,4.6c0,2.4,1,4.5,3.2,4.5
		C275.1,251.3,276.3,249.2,276.3,246.7z"/>
	<path class="st1" d="M287,245.6v5.9h-0.6l-0.5-1.8c-0.6,1.4-1.8,2.1-3.3,2.1c-1.7,0-3.1-0.9-3.1-2.8c0-2.1,1.8-3.1,4.5-3.1
		c0.6,0,1.3,0,2,0.2v-0.5c0-1.9-0.4-3.2-2.5-3.2c-1.2,0-2.1,0.4-3,1.2l-0.4-0.5c0.9-0.7,2.1-1.2,3.5-1.2
		C285.8,241.7,287,242.8,287,245.6z M285.9,247.4v-1c-0.6-0.1-1.2-0.1-1.7-0.1c-2.3,0-3.6,0.9-3.6,2.6c0,1.4,0.8,2.2,2.4,2.2
		C284.4,251,285.9,249.9,285.9,247.4z"/>
	<path class="st1" d="M297.9,237.7v13.7h-0.6l-0.5-1.8c-0.5,1.2-1.7,2.1-3.2,2.1c-2.4,0-4-1.9-4-4.9c0-3.5,2.2-5.1,4.3-5.1
		c1.4,0,2.3,0.5,3,1.4v-5.4H297.9z M296.8,246.8V244c-0.8-1.4-1.9-1.8-2.8-1.8c-2.2,0-3.2,2.3-3.2,4.7c0,2.1,1.2,4.3,3,4.3
		S296.8,249.6,296.8,246.8z"/>
	<path class="st1" d="M58,283.2c0,2.5-2.1,3.6-5,3.6c-0.9,0-2-0.1-2.7-0.2V274c0.8-0.1,1.7-0.2,2.2-0.2c2.6,0,4.5,0.6,4.5,3.1
		c0,1.3-0.9,2.6-2.4,2.9C56.8,280.1,58,281.2,58,283.2z M52.4,274.2c-0.4,0-0.7,0-1,0.1v5.5h1.3c2.2,0,3.1-1.1,3.1-2.8
		C55.7,274.9,54.6,274.2,52.4,274.2z M56.7,283.4c0-2.4-1.5-3.2-4-3.2h-1.4v6.1c0.7,0.2,1.2,0.2,1.7,0.2
		C54.8,286.5,56.7,285.8,56.7,283.4z"/>
	<path class="st1" d="M67.7,280.9v5.9h-0.6l-0.5-1.8c-0.6,1.4-1.8,2.1-3.3,2.1c-1.7,0-3.1-0.9-3.1-2.8c0-2.1,1.8-3.1,4.5-3.1
		c0.6,0,1.3,0,2,0.2v-0.5c0-1.9-0.4-3.2-2.5-3.2c-1.2,0-2.1,0.4-3,1.2l-0.4-0.5c0.9-0.7,2.1-1.2,3.5-1.2
		C66.5,277,67.7,278.1,67.7,280.9z M66.7,282.7v-1c-0.6-0.1-1.2-0.1-1.7-0.1c-2.3,0-3.6,0.9-3.6,2.6c0,1.4,0.8,2.2,2.4,2.2
		C65.2,286.4,66.7,285.2,66.7,282.7z"/>
	<path class="st1" d="M78.7,281.1v5.7h-1.1v-5.2c0-1.4,0-3.9-2.4-3.9c-1.9,0-3.2,1.6-3.2,4.6v4.6H71v-9.4h0.6l0.5,1.8
		c0.7-1.5,2.1-2.1,3.3-2.1C77.8,277,78.7,278.6,78.7,281.1z"/>
	<path class="st1" d="M89.8,277.3v8.4c0,3.3-1.5,5.2-4.4,5.2c-1.2,0-1.9-0.3-2.6-0.7l0.3-0.6c0.7,0.5,1.6,0.8,2.3,0.8
		c2.6,0,3.4-1.7,3.4-4.4v-1.3c-0.5,1.3-1.7,2.1-3.4,2.1c-2.3,0-3.9-1.9-3.9-4.8c0-3.5,2.2-5,4.3-5c1.5,0,2.4,0.6,3,1.5l0.3-1.3H89.8
		z M88.7,282v-2.6c-0.8-1.4-1.9-1.9-2.9-1.9c-2.2,0-3.2,2.2-3.2,4.6c0,2.1,1.2,4.3,3,4.3S88.7,284.8,88.7,282z"/>
	<path class="st1" d="M99.6,280.9v5.9H99l-0.5-1.8c-0.6,1.4-1.8,2.1-3.3,2.1c-1.7,0-3.1-0.9-3.1-2.8c0-2.1,1.8-3.1,4.5-3.1
		c0.6,0,1.3,0,2,0.2v-0.5c0-1.9-0.4-3.2-2.5-3.2c-1.2,0-2.1,0.4-3,1.2l-0.4-0.5c0.9-0.7,2.1-1.2,3.5-1.2
		C98.4,277,99.6,278.1,99.6,280.9z M98.6,282.7v-1c-0.6-0.1-1.2-0.1-1.7-0.1c-2.3,0-3.6,0.9-3.6,2.6c0,1.4,0.8,2.2,2.4,2.2
		C97.1,286.4,98.6,285.2,98.6,282.7z"/>
	<path class="st1" d="M103,273h1.1v13.7H103V273z"/>
	<path class="st1" d="M107,282.1c0-3.2,2.1-5.1,4.5-5.1c2.5,0,4.4,1.7,4.4,4.9c0,3.2-2.1,5.1-4.5,5.1C108.9,287,107,285.3,107,282.1
		z M114.8,282c0-2.4-1-4.5-3.2-4.5c-2.2,0-3.3,2.1-3.3,4.6c0,2.4,1,4.5,3.2,4.5C113.6,286.6,114.8,284.5,114.8,282z"/>
	<path class="st1" d="M123.5,277.2v0.9c-0.2-0.1-0.5-0.1-0.7-0.1c-1.9,0-2.9,1.3-2.9,3.6v5.1h-1.1v-9.4h0.6l0.5,1.9
		c0.4-1.1,1.6-2.1,2.9-2.1C123.2,277.1,123.4,277.1,123.5,277.2z"/>
	<path class="st1" d="M132.8,281.7h-6.9c0,2.5,1,4.8,3.6,4.8c1.2,0,1.9-0.3,2.7-0.9l0.3,0.4c-0.7,0.6-1.8,1-3.2,1
		c-3.2,0-4.4-2.5-4.4-5.1c0-2.5,1.5-4.9,4.3-4.9c2.8,0,3.8,2.1,3.8,4.2C132.8,281.4,132.8,281.5,132.8,281.7z M125.9,281.3h5.7
		c0-0.3,0-0.4,0-0.6c0-1.3-0.5-3.2-2.6-3.2C127.1,277.4,125.9,279.3,125.9,281.3z"/>
	<path class="st1" d="M147.6,282.6c0,2.7-2.1,4.4-4.5,4.4c-1.3,0-2.5-0.5-3.4-1.1l0.4-0.6c0.8,0.8,2,1.2,2.9,1.2
		c2.2,0,3.4-1.4,3.4-3.6c0-2.4-1.3-3.7-3.6-3.7c-0.8,0-1.7,0.2-2.4,0.6V274h6.9v0.8h-6.3v4.2c0.8-0.3,1.6-0.4,2.4-0.4
		C146.2,278.6,147.6,280.4,147.6,282.6z"/>
	<path class="st1" d="M158.7,282.7c0,2.7-2,4.3-4.4,4.3c-3.4,0-4.5-3.1-4.5-6c0-4,2.1-7.2,5.8-7.2c0.8,0,1.6,0.1,2.4,0.5l-0.4,0.5
		c-0.9-0.5-1.7-0.5-2.2-0.5c-2.7,0-4.4,2-4.5,6c0.8-0.9,2.2-1.7,3.7-1.7C157.2,278.6,158.7,280.1,158.7,282.7z M157.5,282.9
		c0-2.2-1-3.7-3-3.7c-1.3,0-2.7,0.8-3.5,1.8c0,3.4,1.1,5.6,3.2,5.6C156.6,286.6,157.5,284.4,157.5,282.9z"/>
	<path class="st1" d="M161.1,280.3c0-3.5,1.7-6.6,4.5-6.6c2.9,0,4.2,3.1,4.2,6.6c0,3.4-1.7,6.7-4.5,6.7
		C162.4,287,161.1,283.8,161.1,280.3z M168.6,280.3c0-2.7-0.6-6.1-3-6.1c-2.6,0-3.3,3.5-3.3,6.2s0.6,6.2,3,6.2
		C167.9,286.5,168.6,282.9,168.6,280.3z"/>
	<path class="st1" d="M172.5,280.3c0-3.5,1.7-6.6,4.5-6.6c2.9,0,4.2,3.1,4.2,6.6c0,3.4-1.7,6.7-4.5,6.7
		C173.8,287,172.5,283.8,172.5,280.3z M180,280.3c0-2.7-0.6-6.1-3-6.1c-2.6,0-3.3,3.5-3.3,6.2s0.6,6.2,3,6.2
		C179.4,286.5,180,282.9,180,280.3z"/>
	<path class="st1" d="M183.8,285.8h6.6v0.9h-7.5V286c3.3-3.1,6.4-6.1,6.4-9c0-1.8-1.1-2.8-2.6-2.8c-0.9,0-2.2,0.4-3,1.1l-0.3-0.5
		c1-0.8,2.4-1.1,3.4-1.1c2.8,0,3.8,1.7,3.8,3.3C190.5,279.8,187.7,282.5,183.8,285.8z"/>
	<path class="st1" d="M200.6,282.6c0,2.7-2.1,4.4-4.5,4.4c-1.3,0-2.5-0.5-3.4-1.1l0.4-0.6c0.8,0.8,2,1.2,2.9,1.2
		c2.2,0,3.4-1.4,3.4-3.6c0-2.4-1.3-3.7-3.6-3.7c-0.8,0-1.7,0.2-2.4,0.6V274h6.9v0.8H194v4.2c0.8-0.3,1.6-0.4,2.4-0.4
		C199.2,278.6,200.6,280.4,200.6,282.6z"/>
	<path class="st1" d="M204.2,286.7c0,1.5-0.8,2.4-2,2.9l-0.2-0.3c1-0.6,1.4-1.3,1.4-2.1c0-0.1,0-0.3-0.1-0.4
		c-0.1,0.1-0.3,0.2-0.5,0.2c-0.5,0-0.8-0.3-0.8-0.9c0-0.6,0.4-0.9,1-0.9C203.8,285.2,204.2,285.8,204.2,286.7z"/>
	<path class="st1" d="M213.9,280.2h-1.2v6.5h-1.1V274h1.1v5.8h1.3c1.8-1.6,3.6-4.1,4.8-5.8h1c-1.1,1.6-3.5,4.3-5,5.7l5.3,7h-1.3
		L213.9,280.2z"/>
	<path class="st1" d="M229.1,280.9v5.9h-0.6l-0.5-1.8c-0.6,1.4-1.8,2.1-3.3,2.1c-1.7,0-3.1-0.9-3.1-2.8c0-2.1,1.8-3.1,4.5-3.1
		c0.6,0,1.3,0,2,0.2v-0.5c0-1.9-0.4-3.2-2.5-3.2c-1.2,0-2.1,0.4-3,1.2l-0.4-0.5c0.9-0.7,2.1-1.2,3.5-1.2
		C227.8,277,229.1,278.1,229.1,280.9z M228,282.7v-1c-0.6-0.1-1.2-0.1-1.7-0.1c-2.3,0-3.6,0.9-3.6,2.6c0,1.4,0.8,2.2,2.4,2.2
		C226.5,286.4,228,285.2,228,282.7z"/>
	<path class="st1" d="M237,277.2v0.9c-0.2-0.1-0.5-0.1-0.7-0.1c-1.9,0-2.9,1.3-2.9,3.6v5.1h-1.1v-9.4h0.6l0.5,1.9
		c0.4-1.1,1.6-2.1,2.9-2.1C236.7,277.1,236.9,277.1,237,277.2z"/>
	<path class="st1" d="M246.7,281.1v5.7h-1.1v-5.2c0-1.4,0-3.9-2.4-3.9c-1.9,0-3.2,1.6-3.2,4.6v4.6H239v-9.4h0.6l0.5,1.8
		c0.7-1.5,2.1-2.1,3.3-2.1C245.7,277,246.7,278.6,246.7,281.1z"/>
	<path class="st1" d="M256.8,280.9v5.9h-0.6l-0.5-1.8c-0.6,1.4-1.8,2.1-3.3,2.1c-1.7,0-3.1-0.9-3.1-2.8c0-2.1,1.8-3.1,4.5-3.1
		c0.6,0,1.3,0,2,0.2v-0.5c0-1.9-0.4-3.2-2.5-3.2c-1.2,0-2.1,0.4-3,1.2l-0.4-0.5c0.9-0.7,2.1-1.2,3.5-1.2
		C255.5,277,256.8,278.1,256.8,280.9z M255.7,282.7v-1c-0.6-0.1-1.2-0.1-1.7-0.1c-2.3,0-3.6,0.9-3.6,2.6c0,1.4,0.8,2.2,2.4,2.2
		C254.2,286.4,255.7,285.2,255.7,282.7z"/>
	<path class="st1" d="M265,286.2c-0.6,0.5-1.2,0.8-1.9,0.8c-2.1,0-2.5-1.8-2.5-4v-5.3h-2v-0.4h2v-2.5h1.1v2.5h3.1v0.4h-3.1v5
		c0,2.1,0.2,3.8,1.8,3.8c0.4,0,1.1-0.3,1.4-0.6L265,286.2z"/>
	<path class="st1" d="M273.8,280.9v5.9h-0.6l-0.5-1.8c-0.6,1.4-1.8,2.1-3.3,2.1c-1.7,0-3.1-0.9-3.1-2.8c0-2.1,1.8-3.1,4.5-3.1
		c0.6,0,1.3,0,2,0.2v-0.5c0-1.9-0.4-3.2-2.5-3.2c-1.2,0-2.1,0.4-3,1.2l-0.4-0.5c0.9-0.7,2.1-1.2,3.5-1.2
		C272.6,277,273.8,278.1,273.8,280.9z M272.7,282.7v-1c-0.6-0.1-1.2-0.1-1.7-0.1c-2.3,0-3.6,0.9-3.6,2.6c0,1.4,0.8,2.2,2.4,2.2
		C271.2,286.4,272.7,285.2,272.7,282.7z"/>
	<path class="st1" d="M279.5,281.8h-1.2v4.9h-1.1V273h1.1v8.3h1.3c1.3-1.3,2.3-2.4,3.4-4.1h1.1c-1.5,1.8-2.9,3.2-3.9,4.1l4.3,5.3
		h-1.2L279.5,281.8z"/>
	<path class="st1" d="M293.3,280.9v5.9h-0.6l-0.5-1.8c-0.6,1.4-1.8,2.1-3.3,2.1c-1.7,0-3.1-0.9-3.1-2.8c0-2.1,1.8-3.1,4.5-3.1
		c0.6,0,1.3,0,2,0.2v-0.5c0-1.9-0.4-3.2-2.5-3.2c-1.2,0-2.1,0.4-3,1.2l-0.4-0.5c0.9-0.7,2.1-1.2,3.5-1.2
		C292.1,277,293.3,278.1,293.3,280.9z M292.2,282.7v-1c-0.6-0.1-1.2-0.1-1.7-0.1c-2.3,0-3.6,0.9-3.6,2.6c0,1.4,0.8,2.2,2.4,2.2
		C290.7,286.4,292.2,285.2,292.2,282.7z"/>
	<path class="st1" d="M297.6,286.7c0,1.5-0.8,2.4-2,2.9l-0.2-0.3c1-0.6,1.4-1.3,1.4-2.1c0-0.1,0-0.3-0.1-0.4
		c-0.1,0.1-0.3,0.2-0.5,0.2c-0.5,0-0.8-0.3-0.8-0.9c0-0.6,0.4-0.9,1-0.9C297.2,285.2,297.6,285.8,297.6,286.7z"/>
	<path class="st1" d="M305,274h1.1v12.7H305V274z"/>
	<path class="st1" d="M317.7,281.1v5.7h-1.1v-5.2c0-1.4,0-3.9-2.4-3.9c-1.9,0-3.2,1.6-3.2,4.6v4.6H310v-9.4h0.6l0.5,1.8
		c0.7-1.5,2.1-2.1,3.3-2.1C316.7,277,317.7,278.6,317.7,281.1z"/>
	<path class="st1" d="M328.7,273v13.7h-0.6l-0.5-1.8c-0.5,1.2-1.7,2.1-3.2,2.1c-2.4,0-4-1.9-4-4.9c0-3.5,2.2-5.1,4.3-5.1
		c1.4,0,2.3,0.5,3,1.4V273H328.7z M327.7,282.1v-2.7c-0.8-1.4-1.9-1.8-2.8-1.8c-2.2,0-3.2,2.3-3.2,4.7c0,2.1,1.2,4.3,3,4.3
		S327.7,284.9,327.7,282.1z"/>
	<path class="st1" d="M332.3,274.5c0-0.5,0.3-0.8,0.8-0.8c0.5,0,0.8,0.3,0.8,0.8c0,0.5-0.3,0.8-0.8,0.8S332.3,274.9,332.3,274.5z
		 M332.6,277.3h1.1v9.4h-1.1V277.3z"/>
	<path class="st1" d="M344.1,280.9v5.9h-0.6l-0.5-1.8c-0.6,1.4-1.8,2.1-3.3,2.1c-1.7,0-3.1-0.9-3.1-2.8c0-2.1,1.8-3.1,4.5-3.1
		c0.6,0,1.3,0,2,0.2v-0.5c0-1.9-0.4-3.2-2.5-3.2c-1.2,0-2.1,0.4-3,1.2l-0.4-0.5c0.9-0.7,2.1-1.2,3.5-1.2
		C342.9,277,344.1,278.1,344.1,280.9z M343.1,282.7v-1c-0.6-0.1-1.2-0.1-1.7-0.1c-2.3,0-3.6,0.9-3.6,2.6c0,1.4,0.8,2.2,2.4,2.2
		C341.6,286.4,343.1,285.2,343.1,282.7z"/>
	<path class="st1" d="M61.7,312.6c-1.1,3.6-2.2,6.8-3.3,9.4h-0.5l-2.5-7.4c-0.9,2.7-1.8,5.1-2.9,7.4h-0.5l-3.1-9.4h1.1l2.6,7.9
		c0.8-2,1.8-4.4,2.8-7.9h0.4l2.7,7.9c0.8-2.2,1.8-5.4,2.3-7.9H61.7z"/>
	<path class="st1" d="M76.1,312.6c-1.1,3.6-2.2,6.8-3.3,9.4h-0.5l-2.5-7.4c-0.9,2.7-1.8,5.1-2.9,7.4h-0.5l-3.1-9.4h1.1l2.6,7.9
		c0.8-2,1.8-4.4,2.8-7.9h0.4l2.7,7.9c0.8-2.2,1.8-5.4,2.3-7.9H76.1z"/>
	<path class="st1" d="M90.5,312.6c-1.1,3.6-2.2,6.8-3.3,9.4h-0.5l-2.5-7.4c-0.9,2.7-1.8,5.1-2.9,7.4h-0.5l-3.1-9.4h1.1l2.6,7.9
		c0.8-2,1.8-4.4,2.8-7.9h0.4l2.7,7.9c0.8-2.2,1.8-5.4,2.3-7.9H90.5z"/>
	<path class="st1" d="M90.4,321.4c0-0.5,0.3-0.9,0.9-0.9c0.5,0,0.9,0.4,0.9,0.9c0,0.5-0.3,0.9-0.9,0.9
		C90.8,322.3,90.4,321.9,90.4,321.4z"/>
	<path class="st1" d="M101.9,317H95c0,2.5,1,4.8,3.6,4.8c1.2,0,1.9-0.3,2.7-0.9l0.3,0.4c-0.7,0.6-1.8,1-3.2,1
		c-3.2,0-4.4-2.5-4.4-5.1c0-2.5,1.5-4.9,4.3-4.9c2.8,0,3.8,2.1,3.8,4.2C101.9,316.7,101.9,316.8,101.9,317z M95,316.6h5.7
		c0-0.3,0-0.4,0-0.6c0-1.3-0.5-3.2-2.6-3.2C96.2,312.7,95.1,314.6,95,316.6z"/>
	<path class="st1" d="M111.4,316.2v5.9h-0.6l-0.5-1.8c-0.6,1.4-1.8,2.1-3.3,2.1c-1.7,0-3.1-0.9-3.1-2.8c0-2.1,1.8-3.1,4.5-3.1
		c0.6,0,1.3,0,2,0.2v-0.5c0-1.9-0.4-3.2-2.5-3.2c-1.2,0-2.1,0.4-3,1.2l-0.4-0.5c0.9-0.7,2.1-1.2,3.5-1.2
		C110.2,312.3,111.4,313.4,111.4,316.2z M110.4,318v-1c-0.6-0.1-1.2-0.1-1.7-0.1c-2.3,0-3.6,0.9-3.6,2.6c0,1.4,0.8,2.2,2.4,2.2
		C108.8,321.7,110.4,320.5,110.4,318z"/>
	<path class="st1" d="M119.4,312.5v0.9c-0.2-0.1-0.5-0.1-0.7-0.1c-1.9,0-2.9,1.3-2.9,3.6v5.1h-1.1v-9.4h0.6l0.5,1.9
		c0.4-1.1,1.6-2.1,2.9-2.1C119,312.4,119.2,312.5,119.4,312.5z"/>
	<path class="st1" d="M126.3,321.6c-0.6,0.5-1.2,0.8-1.9,0.8c-2.1,0-2.5-1.8-2.5-4V313h-2v-0.4h2v-2.5h1.1v2.5h3.1v0.4h-3.1v5
		c0,2.1,0.2,3.8,1.8,3.8c0.4,0,1.1-0.3,1.4-0.6L126.3,321.6z"/>
	<path class="st1" d="M136.2,316.4v5.7h-1.1v-5.2c0-1.4,0-3.9-2.4-3.9c-1.9,0-3.2,1.6-3.2,4.6v4.6h-1.1v-13.7h1.1v6.2
		c0.7-1.7,2.1-2.3,3.3-2.3C135.3,312.3,136.2,313.9,136.2,316.4z"/>
	<path class="st1" d="M139.4,309.8c0-0.5,0.3-0.8,0.8-0.8c0.5,0,0.8,0.3,0.8,0.8c0,0.5-0.3,0.8-0.8,0.8S139.4,310.2,139.4,309.8z
		 M139.7,312.6h1.1v9.4h-1.1V312.6z"/>
	<path class="st1" d="M149.6,321.6c-0.6,0.5-1.2,0.8-1.9,0.8c-2.1,0-2.5-1.8-2.5-4V313h-2v-0.4h2v-2.5h1.1v2.5h3.1v0.4h-3.1v5
		c0,2.1,0.2,3.8,1.8,3.8c0.4,0,1.1-0.3,1.4-0.6L149.6,321.6z"/>
	<path class="st1" d="M159.1,317h-6.9c0,2.5,1,4.8,3.6,4.8c1.2,0,1.9-0.3,2.7-0.9l0.3,0.4c-0.7,0.6-1.8,1-3.2,1
		c-3.2,0-4.4-2.5-4.4-5.1c0-2.5,1.5-4.9,4.3-4.9c2.8,0,3.8,2.1,3.8,4.2C159.1,316.7,159.1,316.8,159.1,317z M152.2,316.6h5.7
		c0-0.3,0-0.4,0-0.6c0-1.3-0.5-3.2-2.6-3.2C153.4,312.7,152.3,314.6,152.2,316.6z"/>
	<path class="st1" d="M161.2,317.4c0-2.8,1.9-5.1,4.8-5.1c1.2,0,1.9,0.3,2.6,0.7l-0.3,0.5c-0.6-0.5-1.4-0.8-2.2-0.8
		c-2.7,0-3.6,2.6-3.6,4.5c0,2.7,1.4,4.4,3.6,4.4c1,0,1.9-0.3,2.4-0.8l0.3,0.4c-0.6,0.6-1.8,1-2.9,1
		C163,322.3,161.2,320.4,161.2,317.4z"/>
	<path class="st1" d="M175.9,321.6c-0.6,0.5-1.2,0.8-1.9,0.8c-2.1,0-2.5-1.8-2.5-4V313h-2v-0.4h2v-2.5h1.1v2.5h3.1v0.4h-3.1v5
		c0,2.1,0.2,3.8,1.8,3.8c0.4,0,1.1-0.3,1.4-0.6L175.9,321.6z"/>
	<path class="st1" d="M177.4,321.4l0.3-0.6c1,0.7,1.9,0.9,2.8,0.9c1.3,0,2.3-0.7,2.3-1.8c0-1.2-0.9-1.6-2.1-2.2l-1.1-0.5
		c-1-0.5-1.9-1.2-1.9-2.4c0-1.5,1.3-2.5,3.2-2.5c0.9,0,1.7,0.1,2.6,0.6l-0.3,0.6c-0.9-0.6-1.5-0.7-2.3-0.7c-1.3,0-2.3,0.6-2.3,1.7
		c0,0.8,0.5,1.3,1.6,1.8l1.6,0.7c1.5,0.7,1.9,1.6,1.9,2.5c0,1.9-1.7,2.8-3.3,2.8C179.4,322.3,178.3,322.1,177.4,321.4z"/>
	<path class="st1" d="M185.4,321.4c0-0.5,0.3-0.9,0.9-0.9c0.5,0,0.9,0.4,0.9,0.9c0,0.5-0.3,0.9-0.9,0.9
		C185.7,322.3,185.4,321.9,185.4,321.4z"/>
	<path class="st1" d="M188.6,317.4c0-2.8,1.9-5.1,4.8-5.1c1.2,0,1.9,0.3,2.6,0.7l-0.3,0.5c-0.6-0.5-1.4-0.8-2.2-0.8
		c-2.7,0-3.6,2.6-3.6,4.5c0,2.7,1.4,4.4,3.6,4.4c1,0,1.9-0.3,2.4-0.8l0.3,0.4c-0.6,0.6-1.8,1-2.9,1
		C190.4,322.3,188.6,320.4,188.6,317.4z"/>
	<path class="st1" d="M197.6,317.5c0-3.2,2.1-5.1,4.5-5.1c2.5,0,4.4,1.7,4.4,4.9c0,3.2-2.1,5.1-4.5,5.1
		C199.5,322.3,197.6,320.7,197.6,317.5z M205.4,317.3c0-2.4-1-4.5-3.2-4.5c-2.2,0-3.3,2.1-3.3,4.6c0,2.4,1,4.5,3.2,4.5
		C204.2,321.9,205.4,319.8,205.4,317.3z"/>
	<path class="st1" d="M223.5,316.4v5.7h-1.1v-5.2c0-1.4,0-3.9-2.3-3.9c-1.8,0-2.9,1.6-2.9,4.6v4.6H216v-5.2c0-1.4,0-3.9-2.3-3.9
		c-1.9,0-3.2,1.6-3.2,4.6v4.6h-1.1v-9.4h0.6l0.5,1.8c0.7-1.5,2.1-2.1,3.3-2.1c1.7,0,2.6,0.9,3,2.5c0.7-1.8,2.1-2.5,3.4-2.5
		C222.5,312.3,223.5,313.9,223.5,316.4z"/>
	<path class="st1" d="M56.1,370.2c0,2.1-1.7,3-4.1,3c-0.7,0-1.6-0.1-2.2-0.2v-10.2c0.6-0.1,1.4-0.1,1.8-0.1c2.1,0,3.6,0.5,3.6,2.5
		c0,1.1-0.7,2.1-2,2.4C55.1,367.6,56.1,368.5,56.1,370.2z M51.6,362.9c-0.3,0-0.6,0-0.9,0.1v4.4h1c1.8,0,2.5-0.9,2.5-2.3
		C54.3,363.4,53.4,362.9,51.6,362.9z M55.1,370.3c0-2-1.2-2.6-3.2-2.6h-1.1v5c0.6,0.1,1,0.2,1.3,0.2
		C53.5,372.8,55.1,372.3,55.1,370.3z"/>
	<path class="st1" d="M64.5,368.9h-5.6c0,2,0.8,3.9,2.9,3.9c1,0,1.5-0.2,2.2-0.7l0.2,0.3c-0.6,0.5-1.5,0.8-2.6,0.8
		c-2.6,0-3.6-2-3.6-4.1c0-2,1.3-4,3.5-4c2.3,0,3.1,1.7,3.1,3.4C64.5,368.7,64.5,368.8,64.5,368.9z M58.9,368.6h4.6
		c0-0.2,0-0.4,0-0.5c0-1-0.4-2.6-2.1-2.6C59.9,365.5,59,367,58.9,368.6z"/>
	<path class="st1" d="M76.2,368.3v4.8h-0.5l-0.4-1.5c-0.5,1.2-1.4,1.7-2.7,1.7c-1.4,0-2.5-0.7-2.5-2.3c0-1.7,1.4-2.5,3.6-2.5
		c0.5,0,1.1,0,1.6,0.1v-0.4c0-1.5-0.4-2.6-2-2.6c-0.9,0-1.7,0.3-2.4,1l-0.3-0.4c0.7-0.6,1.7-1,2.8-1C75.2,365.1,76.2,366,76.2,368.3
		z M75.3,369.8v-0.8c-0.5-0.1-1-0.1-1.4-0.1c-1.9,0-2.9,0.7-2.9,2.1c0,1.1,0.7,1.8,1.9,1.8C74.1,372.7,75.3,371.8,75.3,369.8z"/>
	<path class="st1" d="M88.3,365.4c-0.9,2.9-1.8,5.5-2.7,7.7h-0.4l-2.1-6c-0.7,2.2-1.5,4.1-2.4,6h-0.4l-2.5-7.7h0.9l2.1,6.4
		c0.7-1.6,1.4-3.6,2.3-6.4h0.3l2.2,6.4c0.7-1.8,1.5-4.4,1.9-6.4H88.3z"/>
	<path class="st1" d="M95.5,368.3v4.8h-0.5l-0.4-1.5c-0.5,1.2-1.4,1.7-2.7,1.7c-1.4,0-2.5-0.7-2.5-2.3c0-1.7,1.4-2.5,3.6-2.5
		c0.5,0,1.1,0,1.6,0.1v-0.4c0-1.5-0.4-2.6-2-2.6c-0.9,0-1.7,0.3-2.4,1l-0.3-0.4c0.7-0.6,1.7-1,2.8-1C94.4,365.1,95.5,366,95.5,368.3
		z M94.6,369.8v-0.8c-0.5-0.1-1-0.1-1.4-0.1c-1.9,0-2.9,0.7-2.9,2.1c0,1.1,0.7,1.8,1.9,1.8C93.4,372.7,94.6,371.8,94.6,369.8z"/>
	<path class="st1" d="M101.9,365.3v0.7c-0.2-0.1-0.4-0.1-0.5-0.1c-1.6,0-2.4,1-2.4,2.9v4.2h-0.9v-7.7h0.5l0.4,1.5
		c0.4-0.9,1.3-1.7,2.4-1.7C101.6,365.2,101.8,365.2,101.9,365.3z"/>
	<path class="st1" d="M109.4,368.9h-5.6c0,2,0.8,3.9,2.9,3.9c1,0,1.5-0.2,2.2-0.7l0.2,0.3c-0.6,0.5-1.5,0.8-2.6,0.8
		c-2.6,0-3.6-2-3.6-4.1c0-2,1.3-4,3.5-4c2.3,0,3.1,1.7,3.1,3.4C109.5,368.7,109.5,368.8,109.4,368.9z M103.8,368.6h4.6
		c0-0.2,0-0.4,0-0.5c0-1-0.4-2.6-2.1-2.6C104.8,365.5,103.9,367,103.8,368.6z"/>
	<path class="st1" d="M115.1,369.3c0-2.6,1.7-4.2,3.7-4.2c2.1,0,3.6,1.3,3.6,4c0,2.6-1.7,4.1-3.7,4.1
		C116.6,373.2,115.1,371.9,115.1,369.3z M121.4,369.2c0-2-0.8-3.7-2.6-3.7c-1.8,0-2.7,1.7-2.7,3.8c0,2,0.8,3.7,2.6,3.7
		C120.4,372.9,121.4,371.2,121.4,369.2z"/>
	<path class="st1" d="M125.8,365.1v0.2h2.5v0.3h-2.5v7.3h-0.9v-7.3h-1.6v-0.3h1.6v-0.1c0-2.4,1.1-3.6,2.9-3.6c0.6,0,1.2,0.1,1.6,0.4
		l-0.2,0.3c-0.4-0.2-0.9-0.4-1.4-0.4C126.4,362.1,125.8,363.2,125.8,365.1z"/>
	<path class="st1" d="M139.3,365.4v6.8c0,2.7-1.2,4.2-3.5,4.2c-1,0-1.6-0.2-2.1-0.6l0.3-0.5c0.6,0.4,1.3,0.6,1.9,0.6
		c2,0,2.7-1.4,2.7-3.6v-1.1c-0.5,1.4-1.7,1.9-2.7,1.9c-1.9,0-2.7-1.3-2.7-3.3v-4.5h0.9v4.1c0,1.1,0,3.2,2,3.2c1.5,0,2.5-1.4,2.5-3.9
		v-3.4H139.3z"/>
	<path class="st1" d="M141.5,369.3c0-2.6,1.7-4.2,3.7-4.2c2.1,0,3.6,1.3,3.6,4c0,2.6-1.7,4.1-3.7,4.1
		C143,373.2,141.5,371.9,141.5,369.3z M147.8,369.2c0-2-0.8-3.7-2.6-3.7c-1.8,0-2.7,1.7-2.7,3.8c0,2,0.8,3.7,2.6,3.7
		C146.9,372.9,147.8,371.2,147.8,369.2z"/>
	<path class="st1" d="M157.2,365.4v7.7h-0.5l-0.4-1.5c-0.6,1.2-1.6,1.7-2.6,1.7c-1.9,0-2.7-1.3-2.7-3.3v-4.6h0.9v4.2
		c0,1.1,0,3.2,2,3.2c1.5,0,2.5-1.4,2.5-3.9v-3.5H157.2z"/>
	<path class="st1" d="M163.9,365.3v0.7c-0.2-0.1-0.4-0.1-0.5-0.1c-1.6,0-2.4,1-2.4,2.9v4.2h-0.9v-7.7h0.5l0.4,1.5
		c0.4-0.9,1.3-1.7,2.4-1.7C163.7,365.2,163.8,365.2,163.9,365.3z"/>
	<path class="st1" d="M175.4,368.9h-5.6c0,2,0.8,3.9,2.9,3.9c1,0,1.5-0.2,2.2-0.7l0.2,0.3c-0.6,0.5-1.5,0.8-2.6,0.8
		c-2.6,0-3.6-2-3.6-4.1c0-2,1.3-4,3.5-4c2.3,0,3.1,1.7,3.1,3.4C175.4,368.7,175.4,368.8,175.4,368.9z M169.8,368.6h4.6
		c0-0.2,0-0.4,0-0.5c0-1-0.4-2.6-2.1-2.6C170.8,365.5,169.8,367,169.8,368.6z"/>
	<path class="st1" d="M184,368.4v4.6h-0.9v-4.2c0-1.1,0-3.2-2-3.2c-1.5,0-2.6,1.3-2.6,3.7v3.7h-0.9v-7.7h0.5l0.4,1.5
		c0.6-1.2,1.7-1.7,2.7-1.7C183.2,365.1,184,366.4,184,368.4z"/>
	<path class="st1" d="M192.1,365.4c-0.7,2.1-2.1,5.6-3.1,7.7h-0.4l-3-7.7h0.9l2.5,6.5c0.7-1.5,1.9-4.9,2.3-6.5H192.1z"/>
	<path class="st1" d="M193.6,363.1c0-0.4,0.2-0.7,0.7-0.7c0.4,0,0.7,0.3,0.7,0.6c0,0.4-0.2,0.7-0.7,0.7
		C193.9,363.7,193.6,363.4,193.6,363.1z M193.8,365.4h0.9v7.7h-0.9V365.4z"/>
	<path class="st1" d="M201.6,365.3v0.7c-0.2-0.1-0.4-0.1-0.5-0.1c-1.6,0-2.4,1-2.4,2.9v4.2h-0.9v-7.7h0.5l0.4,1.5
		c0.4-0.9,1.3-1.7,2.4-1.7C201.3,365.2,201.5,365.2,201.6,365.3z"/>
	<path class="st1" d="M202.5,369.3c0-2.6,1.7-4.2,3.7-4.2c2.1,0,3.6,1.3,3.6,4c0,2.6-1.7,4.1-3.7,4.1
		C204.1,373.2,202.5,371.9,202.5,369.3z M208.8,369.2c0-2-0.8-3.7-2.6-3.7c-1.8,0-2.7,1.7-2.7,3.8c0,2,0.8,3.7,2.6,3.7
		C207.9,372.9,208.8,371.2,208.8,369.2z"/>
	<path class="st1" d="M218.4,368.4v4.6h-0.9v-4.2c0-1.1,0-3.2-2-3.2c-1.5,0-2.6,1.3-2.6,3.7v3.7h-0.9v-7.7h0.5l0.4,1.5
		c0.6-1.2,1.7-1.7,2.7-1.7C217.6,365.1,218.4,366.4,218.4,368.4z"/>
	<path class="st1" d="M232.6,368.4v4.6h-0.9v-4.2c0-1.1,0-3.2-1.9-3.2c-1.4,0-2.4,1.3-2.4,3.7v3.7h-0.9v-4.2c0-1.1,0-3.2-1.9-3.2
		c-1.5,0-2.6,1.3-2.6,3.7v3.7h-0.9v-7.7h0.5l0.4,1.5c0.6-1.2,1.7-1.7,2.7-1.7c1.4,0,2.1,0.8,2.4,2c0.5-1.5,1.7-2,2.7-2
		C231.8,365.1,232.6,366.4,232.6,368.4z"/>
	<path class="st1" d="M241.4,368.9h-5.6c0,2,0.8,3.9,2.9,3.9c1,0,1.5-0.2,2.2-0.7l0.2,0.3c-0.6,0.5-1.5,0.8-2.6,0.8
		c-2.6,0-3.6-2-3.6-4.1c0-2,1.3-4,3.5-4c2.3,0,3.1,1.7,3.1,3.4C241.4,368.7,241.4,368.8,241.4,368.9z M235.8,368.6h4.6
		c0-0.2,0-0.4,0-0.5c0-1-0.4-2.6-2.1-2.6C236.8,365.5,235.8,367,235.8,368.6z"/>
	<path class="st1" d="M250,368.4v4.6h-0.9v-4.2c0-1.1,0-3.2-2-3.2c-1.5,0-2.6,1.3-2.6,3.7v3.7h-0.9v-7.7h0.5l0.4,1.5
		c0.6-1.2,1.7-1.7,2.7-1.7C249.2,365.1,250,366.4,250,368.4z"/>
	<path class="st1" d="M256.7,372.6c-0.5,0.4-1,0.6-1.6,0.6c-1.7,0-2.1-1.5-2.1-3.2v-4.3h-1.6v-0.3h1.6v-2h0.9v2h2.5v0.3h-2.5v4.1
		c0,1.7,0.1,3.1,1.4,3.1c0.4,0,0.9-0.3,1.1-0.5L256.7,372.6z"/>
	<path class="st1" d="M263.9,368.3v4.8h-0.5l-0.4-1.5c-0.5,1.2-1.4,1.7-2.7,1.7c-1.4,0-2.5-0.7-2.5-2.3c0-1.7,1.4-2.5,3.6-2.5
		c0.5,0,1.1,0,1.6,0.1v-0.4c0-1.5-0.4-2.6-2-2.6c-0.9,0-1.7,0.3-2.4,1l-0.3-0.4c0.7-0.6,1.7-1,2.8-1
		C262.9,365.1,263.9,366,263.9,368.3z M263,369.8v-0.8c-0.5-0.1-1-0.1-1.4-0.1c-1.9,0-2.9,0.7-2.9,2.1c0,1.1,0.7,1.8,1.9,1.8
		C261.8,372.7,263,371.8,263,369.8z"/>
	<path class="st1" d="M266.6,361.9h0.9V373h-0.9V361.9z"/>
	<path class="st1" d="M278.1,365.3v0.7c-0.2-0.1-0.4-0.1-0.5-0.1c-1.6,0-2.4,1-2.4,2.9v4.2h-0.9v-7.7h0.5l0.4,1.5
		c0.4-0.9,1.3-1.7,2.4-1.7C277.9,365.2,278,365.2,278.1,365.3z"/>
	<path class="st1" d="M285.7,368.9h-5.6c0,2,0.8,3.9,2.9,3.9c1,0,1.5-0.2,2.2-0.7l0.2,0.3c-0.6,0.5-1.5,0.8-2.6,0.8
		c-2.6,0-3.6-2-3.6-4.1c0-2,1.3-4,3.5-4c2.3,0,3.1,1.7,3.1,3.4C285.7,368.7,285.7,368.8,285.7,368.9z M280.1,368.6h4.6
		c0-0.2,0-0.4,0-0.5c0-1-0.4-2.6-2.1-2.6C281.1,365.5,280.1,367,280.1,368.6z"/>
	<path class="st1" d="M287.4,372.5l0.3-0.5c0.8,0.6,1.6,0.8,2.3,0.8c1.1,0,1.8-0.5,1.8-1.5c0-0.9-0.7-1.3-1.7-1.8l-0.9-0.4
		c-0.8-0.4-1.5-1-1.5-2c0-1.2,1-2,2.6-2c0.8,0,1.4,0.1,2.1,0.5l-0.2,0.5c-0.7-0.5-1.2-0.6-1.9-0.6c-1.1,0-1.8,0.5-1.8,1.3
		c0,0.6,0.4,1.1,1.3,1.5l1.3,0.6c1.2,0.5,1.5,1.3,1.5,2.1c0,1.5-1.3,2.2-2.7,2.2C289.1,373.2,288.2,373,287.4,372.5z"/>
	<path class="st1" d="M301.7,369c0,2.9-1.6,4.3-3.4,4.3c-1.1,0-2-0.3-2.5-1.5v4.4h-0.9v-10.8h0.5l0.3,1.1c0.7-1,1.8-1.3,2.8-1.3
		C300.2,365.1,301.7,366.2,301.7,369z M300.7,369c0-1.7-0.4-3.5-2.5-3.5c-0.9,0-1.9,0.5-2.5,1.7v2.2c0,2.4,1,3.4,2.4,3.4
		C300.2,372.9,300.7,370.8,300.7,369z"/>
	<path class="st1" d="M303.5,369.3c0-2.6,1.7-4.2,3.7-4.2c2.1,0,3.6,1.3,3.6,4c0,2.6-1.7,4.1-3.7,4.1
		C305,373.2,303.5,371.9,303.5,369.3z M309.7,369.2c0-2-0.8-3.7-2.6-3.7c-1.8,0-2.7,1.7-2.7,3.8c0,2,0.8,3.7,2.6,3.7
		C308.8,372.9,309.7,371.2,309.7,369.2z"/>
	<path class="st1" d="M319.3,368.4v4.6h-0.9v-4.2c0-1.1,0-3.2-2-3.2c-1.5,0-2.6,1.3-2.6,3.7v3.7h-0.9v-7.7h0.5l0.4,1.5
		c0.6-1.2,1.7-1.7,2.7-1.7C318.6,365.1,319.3,366.4,319.3,368.4z"/>
	<path class="st1" d="M321.6,372.5l0.3-0.5c0.8,0.6,1.6,0.8,2.3,0.8c1.1,0,1.8-0.5,1.8-1.5c0-0.9-0.7-1.3-1.7-1.8l-0.9-0.4
		c-0.8-0.4-1.5-1-1.5-2c0-1.2,1-2,2.6-2c0.8,0,1.4,0.1,2.1,0.5l-0.2,0.5c-0.7-0.5-1.2-0.6-1.9-0.6c-1.1,0-1.8,0.5-1.8,1.3
		c0,0.6,0.4,1.1,1.3,1.5l1.3,0.6c1.2,0.5,1.5,1.3,1.5,2.1c0,1.5-1.3,2.2-2.7,2.2C323.2,373.2,322.3,373,321.6,372.5z"/>
	<path class="st1" d="M328.9,363.1c0-0.4,0.2-0.7,0.7-0.7c0.4,0,0.7,0.3,0.7,0.6c0,0.4-0.2,0.7-0.7,0.7
		C329.2,363.7,328.9,363.4,328.9,363.1z M329.2,365.4h0.9v7.7h-0.9V365.4z"/>
	<path class="st1" d="M339.9,369c0,2.9-1.6,4.3-3.4,4.3c-1.1,0-2-0.4-2.5-1.5l-0.4,1.3h-0.5v-11.1h0.9v4.6c0.8-1,1.7-1.4,2.7-1.4
		C338.5,365.1,339.9,366.2,339.9,369z M339,369c0-1.7-0.4-3.5-2.5-3.5c-0.8,0-1.9,0.5-2.5,1.6v2.2c0,2.4,1,3.5,2.4,3.5
		C338.4,372.9,339,370.8,339,369z"/>
	<path class="st1" d="M342.2,363.1c0-0.4,0.2-0.7,0.7-0.7c0.4,0,0.7,0.3,0.7,0.6c0,0.4-0.2,0.7-0.7,0.7
		C342.4,363.7,342.2,363.4,342.2,363.1z M342.4,365.4h0.9v7.7h-0.9V365.4z"/>
	<path class="st1" d="M346.4,361.9h0.9V373h-0.9V361.9z"/>
	<path class="st1" d="M350.2,363.1c0-0.4,0.2-0.7,0.7-0.7c0.4,0,0.7,0.3,0.7,0.6c0,0.4-0.2,0.7-0.7,0.7
		C350.4,363.7,350.2,363.4,350.2,363.1z M350.4,365.4h0.9v7.7h-0.9V365.4z"/>
	<path class="st1" d="M358.5,372.6c-0.5,0.4-1,0.6-1.6,0.6c-1.7,0-2.1-1.5-2.1-3.2v-4.3h-1.6v-0.3h1.6v-2h0.9v2h2.5v0.3h-2.5v4.1
		c0,1.7,0.1,3.1,1.4,3.1c0.4,0,0.9-0.3,1.1-0.5L358.5,372.6z"/>
	<path class="st1" d="M366.3,365.4v6.8c0,2.7-1.2,4.2-3.5,4.2c-1,0-1.6-0.2-2.1-0.6l0.3-0.5c0.6,0.4,1.3,0.6,1.9,0.6
		c2,0,2.7-1.4,2.7-3.6v-1.1c-0.5,1.4-1.7,1.9-2.7,1.9c-1.9,0-2.7-1.3-2.7-3.3v-4.5h0.9v4.1c0,1.1,0,3.2,2,3.2c1.5,0,2.5-1.4,2.5-3.9
		v-3.4H366.3z"/>
	<path class="st1" d="M56.1,395c0,2.1-1.7,3-4.1,3c-0.7,0-1.6-0.1-2.2-0.2v-10.2c0.6-0.1,1.4-0.1,1.8-0.1c2.1,0,3.6,0.5,3.6,2.5
		c0,1.1-0.7,2.1-2,2.4C55.1,392.4,56.1,393.4,56.1,395z M51.6,387.7c-0.3,0-0.6,0-0.9,0.1v4.4h1c1.8,0,2.5-0.9,2.5-2.3
		C54.3,388.3,53.4,387.7,51.6,387.7z M55.1,395.1c0-2-1.2-2.6-3.2-2.6h-1.1v5c0.6,0.1,1,0.2,1.3,0.2
		C53.5,397.7,55.1,397.1,55.1,395.1z"/>
	<path class="st1" d="M64.5,393.8h-5.6c0,2,0.8,3.9,2.9,3.9c1,0,1.5-0.2,2.2-0.7l0.2,0.3c-0.6,0.5-1.5,0.8-2.6,0.8
		c-2.6,0-3.6-2-3.6-4.1c0-2,1.3-4,3.5-4c2.3,0,3.1,1.7,3.1,3.4C64.5,393.5,64.5,393.6,64.5,393.8z M58.9,393.4h4.6
		c0-0.2,0-0.4,0-0.5c0-1-0.4-2.6-2.1-2.6C59.9,390.3,59,391.8,58.9,393.4z"/>
	<path class="st1" d="M68.1,390v0.2h2.5v0.3h-2.5v7.3h-0.9v-7.3h-1.6v-0.3h1.6v-0.1c0-2.4,1.1-3.6,2.9-3.6c0.6,0,1.2,0.1,1.6,0.4
		l-0.2,0.3c-0.4-0.2-0.9-0.4-1.4-0.4C68.7,386.9,68.1,388,68.1,390z"/>
	<path class="st1" d="M71.2,394.1c0-2.6,1.7-4.2,3.7-4.2c2.1,0,3.6,1.3,3.6,4c0,2.6-1.7,4.1-3.7,4.1
		C72.8,398.1,71.2,396.7,71.2,394.1z M77.5,394c0-2-0.8-3.7-2.6-3.7c-1.8,0-2.7,1.7-2.7,3.8c0,2,0.8,3.7,2.6,3.7
		C76.6,397.8,77.5,396.1,77.5,394z"/>
	<path class="st1" d="M84.6,390.1v0.7c-0.2-0.1-0.4-0.1-0.5-0.1c-1.6,0-2.4,1-2.4,2.9v4.2h-0.9v-7.7h0.5l0.4,1.5
		c0.4-0.9,1.3-1.7,2.4-1.7C84.4,390.1,84.5,390.1,84.6,390.1z"/>
	<path class="st1" d="M92.2,393.8h-5.6c0,2,0.8,3.9,2.9,3.9c1,0,1.5-0.2,2.2-0.7l0.2,0.3c-0.6,0.5-1.5,0.8-2.6,0.8
		c-2.6,0-3.6-2-3.6-4.1c0-2,1.3-4,3.5-4c2.3,0,3.1,1.7,3.1,3.4C92.2,393.5,92.2,393.6,92.2,393.8z M86.5,393.4h4.6
		c0-0.2,0-0.4,0-0.5c0-1-0.4-2.6-2.1-2.6C87.5,390.3,86.6,391.8,86.5,393.4z"/>
	<path class="st1" d="M105.2,393.8c0,2.9-1.6,4.3-3.4,4.3c-1.1,0-2-0.3-2.5-1.5v4.4h-0.9v-10.8H99l0.3,1.1c0.7-1,1.8-1.3,2.8-1.3
		C103.7,390,105.2,391.1,105.2,393.8z M104.2,393.9c0-1.7-0.4-3.5-2.5-3.5c-0.9,0-1.9,0.5-2.5,1.7v2.2c0,2.4,1,3.4,2.4,3.4
		C103.7,397.7,104.2,395.6,104.2,393.9z"/>
	<path class="st1" d="M111.3,390.1v0.7c-0.2-0.1-0.4-0.1-0.5-0.1c-1.6,0-2.4,1-2.4,2.9v4.2h-0.9v-7.7h0.5l0.4,1.5
		c0.4-0.9,1.3-1.7,2.4-1.7C111.1,390.1,111.2,390.1,111.3,390.1z"/>
	<path class="st1" d="M112.8,387.9c0-0.4,0.2-0.7,0.7-0.7c0.4,0,0.7,0.3,0.7,0.6c0,0.4-0.2,0.7-0.7,0.7
		C113.1,388.5,112.8,388.3,112.8,387.9z M113,390.2h0.9v7.7H113V390.2z"/>
	<path class="st1" d="M123.3,393.3v4.6h-0.9v-4.2c0-1.1,0-3.2-2-3.2c-1.5,0-2.6,1.3-2.6,3.7v3.7H117v-7.7h0.5l0.4,1.5
		c0.6-1.2,1.7-1.7,2.7-1.7C122.5,390,123.3,391.3,123.3,393.3z"/>
	<path class="st1" d="M130,397.5c-0.5,0.4-1,0.6-1.6,0.6c-1.7,0-2.1-1.5-2.1-3.2v-4.3h-1.6v-0.3h1.6v-2h0.9v2h2.5v0.3h-2.5v4.1
		c0,1.7,0.1,3.1,1.4,3.1c0.4,0,0.9-0.3,1.1-0.5L130,397.5z"/>
	<path class="st1" d="M131.6,387.9c0-0.4,0.2-0.7,0.7-0.7c0.4,0,0.7,0.3,0.7,0.6c0,0.4-0.2,0.7-0.7,0.7
		C131.9,388.5,131.6,388.3,131.6,387.9z M131.9,390.2h0.9v7.7h-0.9V390.2z"/>
	<path class="st1" d="M142.1,393.3v4.6h-0.9v-4.2c0-1.1,0-3.2-2-3.2c-1.5,0-2.6,1.3-2.6,3.7v3.7h-0.9v-7.7h0.5l0.4,1.5
		c0.6-1.2,1.7-1.7,2.7-1.7C141.3,390,142.1,391.3,142.1,393.3z"/>
	<path class="st1" d="M151.1,390.2v6.8c0,2.7-1.2,4.2-3.6,4.2c-1,0-1.6-0.2-2.1-0.6l0.3-0.5c0.6,0.4,1.3,0.6,1.8,0.6
		c2.1,0,2.8-1.4,2.8-3.6v-1c-0.4,1-1.4,1.7-2.7,1.7c-1.9,0-3.2-1.5-3.2-3.9c0-2.8,1.8-4.1,3.5-4.1c1.2,0,1.9,0.5,2.5,1.3l0.3-1
		H151.1z M150.2,394v-2.1c-0.6-1.1-1.6-1.5-2.4-1.5c-1.8,0-2.6,1.8-2.6,3.7c0,1.7,0.9,3.5,2.4,3.5S150.2,396.3,150.2,394z"/>
	<path class="st1" d="M161.5,397.5c-0.5,0.4-1,0.6-1.6,0.6c-1.7,0-2.1-1.5-2.1-3.2v-4.3h-1.6v-0.3h1.6v-2h0.9v2h2.5v0.3h-2.5v4.1
		c0,1.7,0.1,3.1,1.4,3.1c0.4,0,0.9-0.3,1.1-0.5L161.5,397.5z"/>
	<path class="st1" d="M169.5,393.3v4.6h-0.9v-4.2c0-1.1,0-3.2-2-3.2c-1.5,0-2.6,1.3-2.6,3.7v3.7h-0.9v-11.1h0.9v5.1
		c0.5-1.3,1.7-1.8,2.7-1.8C168.7,390,169.5,391.3,169.5,393.3z"/>
	<path class="st1" d="M172.1,387.9c0-0.4,0.2-0.7,0.7-0.7c0.4,0,0.7,0.3,0.7,0.6c0,0.4-0.2,0.7-0.7,0.7
		C172.4,388.5,172.1,388.3,172.1,387.9z M172.4,390.2h0.9v7.7h-0.9V390.2z"/>
	<path class="st1" d="M175.8,397.4l0.3-0.5c0.8,0.6,1.6,0.8,2.3,0.8c1.1,0,1.8-0.5,1.8-1.5c0-0.9-0.7-1.3-1.7-1.8l-0.9-0.4
		c-0.8-0.4-1.5-1-1.5-2c0-1.2,1-2,2.6-2c0.8,0,1.4,0.1,2.1,0.5l-0.2,0.5c-0.7-0.5-1.2-0.6-1.9-0.6c-1.1,0-1.8,0.5-1.8,1.3
		c0,0.6,0.4,1.1,1.3,1.5l1.3,0.6c1.2,0.5,1.5,1.3,1.5,2.1c0,1.5-1.3,2.2-2.7,2.2C177.4,398.1,176.5,397.9,175.8,397.4z"/>
	<path class="st1" d="M193.1,393.8h-5.6c0,2,0.8,3.9,2.9,3.9c1,0,1.5-0.2,2.2-0.7l0.2,0.3c-0.6,0.5-1.5,0.8-2.6,0.8
		c-2.6,0-3.6-2-3.6-4.1c0-2,1.3-4,3.5-4c2.3,0,3.1,1.7,3.1,3.4C193.1,393.5,193.1,393.6,193.1,393.8z M187.4,393.4h4.6
		c0-0.2,0-0.4,0-0.5c0-1-0.4-2.6-2.1-2.6C188.4,390.3,187.5,391.8,187.4,393.4z"/>
	<path class="st1" d="M206.8,393.3v4.6h-0.9v-4.2c0-1.1,0-3.2-1.9-3.2c-1.4,0-2.4,1.3-2.4,3.7v3.7h-0.9v-4.2c0-1.1,0-3.2-1.9-3.2
		c-1.5,0-2.6,1.3-2.6,3.7v3.7h-0.9v-7.7h0.5l0.4,1.5c0.6-1.2,1.7-1.7,2.7-1.7c1.4,0,2.1,0.8,2.4,2c0.5-1.5,1.7-2,2.7-2
		C206,390,206.8,391.3,206.8,393.3z"/>
	<path class="st1" d="M215,393.1v4.8h-0.5l-0.4-1.5c-0.5,1.2-1.4,1.7-2.7,1.7c-1.4,0-2.5-0.7-2.5-2.3c0-1.7,1.4-2.5,3.6-2.5
		c0.5,0,1.1,0,1.6,0.1V393c0-1.5-0.4-2.6-2-2.6c-0.9,0-1.7,0.3-2.4,1l-0.3-0.4c0.7-0.6,1.7-1,2.8-1C214,390,215,390.9,215,393.1z
		 M214.1,394.6v-0.8c-0.5-0.1-1-0.1-1.4-0.1c-1.9,0-2.9,0.7-2.9,2.1c0,1.1,0.7,1.8,1.9,1.8C212.9,397.6,214.1,396.6,214.1,394.6z"/>
	<path class="st1" d="M217.6,387.9c0-0.4,0.2-0.7,0.7-0.7c0.4,0,0.7,0.3,0.7,0.6c0,0.4-0.2,0.7-0.7,0.7
		C217.8,388.5,217.6,388.3,217.6,387.9z M217.8,390.2h0.9v7.7h-0.9V390.2z"/>
	<path class="st1" d="M221.8,386.8h0.9v11.1h-0.9V386.8z"/>
	<path class="st1" d="M226.5,397.9c0,1.2-0.6,2-1.6,2.4l-0.2-0.3c0.8-0.5,1.2-1.1,1.2-1.7c0-0.1,0-0.2-0.1-0.3
		c-0.1,0.1-0.2,0.2-0.4,0.2c-0.4,0-0.6-0.3-0.6-0.7c0-0.5,0.4-0.8,0.8-0.8C226.2,396.6,226.5,397.1,226.5,397.9z"/>
	<path class="st1" d="M237.6,393.1v4.8h-0.5l-0.4-1.5c-0.5,1.2-1.4,1.7-2.7,1.7c-1.4,0-2.5-0.7-2.5-2.3c0-1.7,1.4-2.5,3.6-2.5
		c0.5,0,1.1,0,1.6,0.1V393c0-1.5-0.4-2.6-2-2.6c-0.9,0-1.7,0.3-2.4,1L232,391c0.7-0.6,1.7-1,2.8-1
		C236.6,390,237.6,390.9,237.6,393.1z M236.8,394.6v-0.8c-0.5-0.1-1-0.1-1.4-0.1c-1.9,0-2.9,0.7-2.9,2.1c0,1.1,0.7,1.8,1.9,1.8
		C235.6,397.6,236.8,396.6,236.8,394.6z"/>
	<path class="st1" d="M239.7,397.4l0.3-0.5c0.8,0.6,1.6,0.8,2.3,0.8c1.1,0,1.8-0.5,1.8-1.5c0-0.9-0.7-1.3-1.7-1.8l-0.9-0.4
		c-0.8-0.4-1.5-1-1.5-2c0-1.2,1-2,2.6-2c0.8,0,1.4,0.1,2.1,0.5l-0.2,0.5c-0.7-0.5-1.2-0.6-1.9-0.6c-1.1,0-1.8,0.5-1.8,1.3
		c0,0.6,0.4,1.1,1.3,1.5l1.3,0.6c1.2,0.5,1.5,1.3,1.5,2.1c0,1.5-1.3,2.2-2.7,2.2C241.3,398.1,240.4,397.9,239.7,397.4z"/>
	<path class="st1" d="M249,393.9h-1v4h-0.9v-11.1h0.9v6.8h1.1c1.1-1.1,1.9-2,2.8-3.3h0.9c-1.2,1.4-2.3,2.6-3.2,3.3l3.5,4.3h-0.9
		L249,393.9z"/>
	<path class="st1" d="M265,390.2v6.8c0,2.7-1.2,4.2-3.5,4.2c-1,0-1.6-0.2-2.1-0.6l0.3-0.5c0.6,0.4,1.3,0.6,1.9,0.6
		c2,0,2.7-1.4,2.7-3.6v-1.1c-0.5,1.4-1.7,1.9-2.7,1.9c-1.9,0-2.7-1.3-2.7-3.3v-4.5h0.9v4.1c0,1.1,0,3.2,2,3.2c1.5,0,2.5-1.4,2.5-3.9
		v-3.4H265z"/>
	<path class="st1" d="M267.1,394.1c0-2.6,1.7-4.2,3.7-4.2c2.1,0,3.6,1.3,3.6,4c0,2.6-1.7,4.1-3.7,4.1
		C268.6,398.1,267.1,396.7,267.1,394.1z M273.4,394c0-2-0.8-3.7-2.6-3.7c-1.8,0-2.7,1.7-2.7,3.8c0,2,0.8,3.7,2.6,3.7
		C272.5,397.8,273.4,396.1,273.4,394z"/>
	<path class="st1" d="M282.8,390.2v7.7h-0.5l-0.4-1.5c-0.6,1.2-1.6,1.7-2.6,1.7c-1.9,0-2.7-1.3-2.7-3.3v-4.6h0.9v4.2
		c0,1.1,0,3.2,2,3.2c1.5,0,2.5-1.4,2.5-3.9v-3.5H282.8z"/>
	<path class="st1" d="M289.6,390.1v0.7c-0.2-0.1-0.4-0.1-0.5-0.1c-1.6,0-2.4,1-2.4,2.9v4.2h-0.9v-7.7h0.5l0.4,1.5
		c0.4-0.9,1.3-1.7,2.4-1.7C289.3,390.1,289.5,390.1,289.6,390.1z"/>
	<path class="st1" d="M290.6,397.4l0.3-0.5c0.8,0.6,1.6,0.8,2.3,0.8c1.1,0,1.8-0.5,1.8-1.5c0-0.9-0.7-1.3-1.7-1.8l-0.9-0.4
		c-0.8-0.4-1.5-1-1.5-2c0-1.2,1-2,2.6-2c0.8,0,1.4,0.1,2.1,0.5l-0.2,0.5c-0.7-0.5-1.2-0.6-1.9-0.6c-1.1,0-1.8,0.5-1.8,1.3
		c0,0.6,0.4,1.1,1.3,1.5l1.3,0.6c1.2,0.5,1.5,1.3,1.5,2.1c0,1.5-1.3,2.2-2.7,2.2C292.2,398.1,291.3,397.9,290.6,397.4z"/>
	<path class="st1" d="M304,393.8h-5.6c0,2,0.8,3.9,2.9,3.9c1,0,1.5-0.2,2.2-0.7l0.2,0.3c-0.6,0.5-1.5,0.8-2.6,0.8
		c-2.6,0-3.6-2-3.6-4.1c0-2,1.3-4,3.5-4c2.3,0,3.1,1.7,3.1,3.4C304,393.5,304,393.6,304,393.8z M298.4,393.4h4.6c0-0.2,0-0.4,0-0.5
		c0-1-0.4-2.6-2.1-2.6C299.4,390.3,298.4,391.8,298.4,393.4z"/>
	<path class="st1" d="M306.3,386.8h0.9v11.1h-0.9V386.8z"/>
	<path class="st1" d="M311.5,390v0.2h2.5v0.3h-2.5v7.3h-0.9v-7.3H309v-0.3h1.6v-0.1c0-2.4,1.1-3.6,2.9-3.6c0.6,0,1.2,0.1,1.6,0.4
		l-0.2,0.3c-0.4-0.2-0.9-0.4-1.4-0.4C312.1,386.9,311.5,388,311.5,390z"/>
	<path class="st1" d="M328.3,390.2c-0.9,2.9-1.8,5.5-2.7,7.7h-0.4l-2.1-6c-0.7,2.2-1.5,4.1-2.4,6h-0.4l-2.5-7.7h0.9l2.1,6.4
		c0.7-1.6,1.4-3.6,2.3-6.4h0.3l2.2,6.4c0.7-1.8,1.5-4.4,1.9-6.4H328.3z"/>
	<path class="st1" d="M336.4,393.3v4.6h-0.9v-4.2c0-1.1,0-3.2-2-3.2c-1.5,0-2.6,1.3-2.6,3.7v3.7h-0.9v-11.1h0.9v5.1
		c0.5-1.3,1.7-1.8,2.7-1.8C335.6,390,336.4,391.3,336.4,393.3z"/>
	<path class="st1" d="M345,393.8h-5.6c0,2,0.8,3.9,2.9,3.9c1,0,1.5-0.2,2.2-0.7l0.2,0.3c-0.6,0.5-1.5,0.8-2.6,0.8
		c-2.6,0-3.6-2-3.6-4.1c0-2,1.3-4,3.5-4c2.3,0,3.1,1.7,3.1,3.4C345.1,393.5,345.1,393.6,345,393.8z M339.4,393.4h4.6
		c0-0.2,0-0.4,0-0.5c0-1-0.4-2.6-2.1-2.6C340.4,390.3,339.5,391.8,339.4,393.4z"/>
	<path class="st1" d="M351.4,397.5c-0.5,0.4-1,0.6-1.6,0.6c-1.7,0-2.1-1.5-2.1-3.2v-4.3h-1.6v-0.3h1.6v-2h0.9v2h2.5v0.3h-2.5v4.1
		c0,1.7,0.1,3.1,1.4,3.1c0.4,0,0.9-0.3,1.1-0.5L351.4,397.5z"/>
	<path class="st1" d="M359.4,393.3v4.6h-0.9v-4.2c0-1.1,0-3.2-2-3.2c-1.5,0-2.6,1.3-2.6,3.7v3.7h-0.9v-11.1h0.9v5.1
		c0.5-1.3,1.7-1.8,2.7-1.8C358.6,390,359.4,391.3,359.4,393.3z"/>
	<path class="st1" d="M368.1,393.8h-5.6c0,2,0.8,3.9,2.9,3.9c1,0,1.5-0.2,2.2-0.7l0.2,0.3c-0.6,0.5-1.5,0.8-2.6,0.8
		c-2.6,0-3.6-2-3.6-4.1c0-2,1.3-4,3.5-4c2.3,0,3.1,1.7,3.1,3.4C368.1,393.5,368.1,393.6,368.1,393.8z M362.5,393.4h4.6
		c0-0.2,0-0.4,0-0.5c0-1-0.4-2.6-2.1-2.6C363.5,390.3,362.5,391.8,362.5,393.4z"/>
	<path class="st1" d="M374.2,390.1v0.7c-0.2-0.1-0.4-0.1-0.5-0.1c-1.6,0-2.4,1-2.4,2.9v4.2h-0.9v-7.7h0.5l0.4,1.5
		c0.4-0.9,1.3-1.7,2.4-1.7C373.9,390.1,374.1,390.1,374.2,390.1z"/>
	<path class="st1" d="M385.7,390.2v6.8c0,2.7-1.2,4.2-3.5,4.2c-1,0-1.6-0.2-2.1-0.6l0.3-0.5c0.6,0.4,1.3,0.6,1.9,0.6
		c2,0,2.7-1.4,2.7-3.6v-1.1c-0.5,1.4-1.7,1.9-2.7,1.9c-1.9,0-2.7-1.3-2.7-3.3v-4.5h0.9v4.1c0,1.1,0,3.2,2,3.2c1.5,0,2.5-1.4,2.5-3.9
		v-3.4H385.7z"/>
	<path class="st1" d="M387.9,394.1c0-2.6,1.7-4.2,3.7-4.2c2.1,0,3.6,1.3,3.6,4c0,2.6-1.7,4.1-3.7,4.1
		C389.4,398.1,387.9,396.7,387.9,394.1z M394.2,394c0-2-0.8-3.7-2.6-3.7c-1.8,0-2.7,1.7-2.7,3.8c0,2,0.8,3.7,2.6,3.7
		C393.3,397.8,394.2,396.1,394.2,394z"/>
	<path class="st1" d="M403.6,390.2v7.7h-0.5l-0.4-1.5c-0.6,1.2-1.6,1.7-2.6,1.7c-1.9,0-2.7-1.3-2.7-3.3v-4.6h0.9v4.2
		c0,1.1,0,3.2,2,3.2c1.5,0,2.5-1.4,2.5-3.9v-3.5H403.6z"/>
	<path class="st1" d="M416.7,393.3v4.6h-0.9v-4.2c0-1.1,0-3.2-2-3.2c-1.5,0-2.6,1.3-2.6,3.7v3.7h-0.9v-7.7h0.5l0.4,1.5
		c0.6-1.2,1.7-1.7,2.7-1.7C416,390,416.7,391.3,416.7,393.3z"/>
	<path class="st1" d="M425.5,393.8h-5.6c0,2,0.8,3.9,2.9,3.9c1,0,1.5-0.2,2.2-0.7l0.2,0.3c-0.6,0.5-1.5,0.8-2.6,0.8
		c-2.6,0-3.6-2-3.6-4.1c0-2,1.3-4,3.5-4c2.3,0,3.1,1.7,3.1,3.4C425.5,393.5,425.5,393.6,425.5,393.8z M419.9,393.4h4.6
		c0-0.2,0-0.4,0-0.5c0-1-0.4-2.6-2.1-2.6C420.9,390.3,419.9,391.8,419.9,393.4z"/>
	<path class="st1" d="M433.8,393.8h-5.6c0,2,0.8,3.9,2.9,3.9c1,0,1.5-0.2,2.2-0.7l0.2,0.3c-0.6,0.5-1.5,0.8-2.6,0.8
		c-2.6,0-3.6-2-3.6-4.1c0-2,1.3-4,3.5-4c2.3,0,3.1,1.7,3.1,3.4C433.8,393.5,433.8,393.6,433.8,393.8z M428.2,393.4h4.6
		c0-0.2,0-0.4,0-0.5c0-1-0.4-2.6-2.1-2.6C429.2,390.3,428.2,391.8,428.2,393.4z"/>
	<path class="st1" d="M442.3,386.8v11.1h-0.5l-0.4-1.5c-0.4,1-1.4,1.7-2.6,1.7c-1.9,0-3.2-1.5-3.2-4c0-2.8,1.8-4.1,3.5-4.1
		c1.2,0,1.9,0.4,2.4,1.2v-4.4H442.3z M441.4,394.1v-2.2c-0.6-1.1-1.5-1.5-2.3-1.5c-1.8,0-2.6,1.8-2.6,3.8c0,1.7,0.9,3.5,2.4,3.5
		C440.3,397.7,441.4,396.4,441.4,394.1z"/>
	<path class="st1" d="M454.6,393.1v4.8h-0.5l-0.4-1.5c-0.5,1.2-1.4,1.7-2.7,1.7c-1.4,0-2.5-0.7-2.5-2.3c0-1.7,1.4-2.5,3.6-2.5
		c0.5,0,1.1,0,1.6,0.1V393c0-1.5-0.4-2.6-2-2.6c-0.9,0-1.7,0.3-2.4,1L449,391c0.7-0.6,1.7-1,2.8-1
		C453.6,390,454.6,390.9,454.6,393.1z M453.7,394.6v-0.8c-0.5-0.1-1-0.1-1.4-0.1c-1.9,0-2.9,0.7-2.9,2.1c0,1.1,0.7,1.8,1.9,1.8
		C452.5,397.6,453.7,396.6,453.7,394.6z"/>
	<path class="st1" d="M467.5,393.3v4.6h-0.9v-4.2c0-1.1,0-3.2-2-3.2c-1.5,0-2.6,1.3-2.6,3.7v3.7h-0.9v-11.1h0.9v5.1
		c0.5-1.3,1.7-1.8,2.7-1.8C466.7,390,467.5,391.3,467.5,393.3z"/>
	<path class="st1" d="M475.6,393.1v4.8h-0.5l-0.4-1.5c-0.5,1.2-1.4,1.7-2.7,1.7c-1.4,0-2.5-0.7-2.5-2.3c0-1.7,1.4-2.5,3.6-2.5
		c0.5,0,1.1,0,1.6,0.1V393c0-1.5-0.4-2.6-2-2.6c-0.9,0-1.7,0.3-2.4,1L470,391c0.7-0.6,1.7-1,2.8-1
		C474.6,390,475.6,390.9,475.6,393.1z M474.8,394.6v-0.8c-0.5-0.1-1-0.1-1.4-0.1c-1.9,0-2.9,0.7-2.9,2.1c0,1.1,0.7,1.8,1.9,1.8
		C473.5,397.6,474.8,396.6,474.8,394.6z"/>
	<path class="st1" d="M482.1,390.1v0.7c-0.2-0.1-0.4-0.1-0.5-0.1c-1.6,0-2.4,1-2.4,2.9v4.2h-0.9v-7.7h0.5l0.4,1.5
		c0.4-0.9,1.3-1.7,2.4-1.7C481.8,390.1,482,390.1,482.1,390.1z"/>
	<path class="st1" d="M489.8,386.8v11.1h-0.5l-0.4-1.5c-0.4,1-1.4,1.7-2.6,1.7c-1.9,0-3.2-1.5-3.2-4c0-2.8,1.8-4.1,3.5-4.1
		c1.2,0,1.9,0.4,2.4,1.2v-4.4H489.8z M488.9,394.1v-2.2c-0.6-1.1-1.5-1.5-2.3-1.5c-1.8,0-2.6,1.8-2.6,3.8c0,1.7,0.9,3.5,2.4,3.5
		C487.9,397.7,488.9,396.4,488.9,394.1z"/>
	<path class="st1" d="M496.1,394.1c0-2.3,1.6-4.1,3.9-4.1c0.9,0,1.6,0.2,2.1,0.6l-0.3,0.4c-0.5-0.4-1.2-0.6-1.8-0.6
		c-2.2,0-3,2.1-3,3.7c0,2.2,1.1,3.6,2.9,3.6c0.8,0,1.5-0.3,2-0.7l0.2,0.3c-0.5,0.5-1.4,0.8-2.3,0.8
		C497.6,398.1,496.1,396.5,496.1,394.1z"/>
	<path class="st1" d="M503.5,394.1c0-2.6,1.7-4.2,3.7-4.2c2.1,0,3.6,1.3,3.6,4c0,2.6-1.7,4.1-3.7,4.1
		C505,398.1,503.5,396.7,503.5,394.1z M509.8,394c0-2-0.8-3.7-2.6-3.7c-1.8,0-2.7,1.7-2.7,3.8c0,2,0.8,3.7,2.6,3.7
		C508.8,397.8,509.8,396.1,509.8,394z"/>
	<path class="st1" d="M519.9,393.8c0,2.9-1.6,4.3-3.4,4.3c-1.1,0-2-0.3-2.5-1.5v4.4h-0.9v-10.8h0.5l0.3,1.1c0.7-1,1.8-1.3,2.8-1.3
		C518.5,390,519.9,391.1,519.9,393.8z M519,393.9c0-1.7-0.4-3.5-2.5-3.5c-0.9,0-1.9,0.5-2.5,1.7v2.2c0,2.4,1,3.4,2.4,3.4
		C518.4,397.7,519,395.6,519,393.9z"/>
	<path class="st1" d="M528.4,390.2v6.8c0,2.7-1.2,4.2-3.5,4.2c-1,0-1.6-0.2-2.1-0.6l0.3-0.5c0.6,0.4,1.3,0.6,1.9,0.6
		c2,0,2.7-1.4,2.7-3.6v-1.1c-0.5,1.4-1.7,1.9-2.7,1.9c-1.9,0-2.7-1.3-2.7-3.3v-4.5h0.9v4.1c0,1.1,0,3.2,2,3.2c1.5,0,2.5-1.4,2.5-3.9
		v-3.4H528.4z"/>
	<path class="st1" d="M530.4,397c0-0.6,0.4-1.1,1-1.1c0.6,0,1,0.4,1,1.1c0,0.6-0.4,1.1-1,1.1C530.8,398.1,530.4,397.6,530.4,397z
		 M530.9,394.6l-0.2-8.2h1.6l-0.2,8.2H530.9z"/>
</g>
<g>
	<g>
		<path class="st2" d="M49.8,163.1c0-1.3,0-12.4,0-14.7H53c3.4,0,4.9,1.9,4.9,3.9c0,2.2-2.1,4.4-5.9,3.8l0.1-0.2
			c2.9,0,4.3-1.5,4.3-3.5c0-1.8-1.4-3.7-4.8-3.4l-0.1,0.1c0,4.2,0,9.7,0,13.9H49.8z"/>
		<path class="st2" d="M78.8,163.1c-0.6-1.1-2.7-4.6-3.9-6.6c-0.4,0-1.1,0.1-1.5,0l0.2-0.2c2.7,0,4.3-1.8,4.3-3.8
			c0-1.8-1.4-3.7-4.8-3.4l-0.1,0.1v13.9h-1.7c0-1.3,0-12.4,0-14.7h3.2c3.4,0,4.9,1.9,4.9,3.9c0,2-1,3.4-2.8,3.9
			c0.9,1.8,2.7,4.5,4.2,6.8H78.8z"/>
		<path class="st2" d="M94.3,163.1c0-1.3,0.1-12.4,0-14.7h1.6c0,4.2,0,10.5,0,14.7H94.3z"/>
		<path class="st2" d="M115.4,163.3c0,0-0.4-1-0.6-1.5c-1.9-4.7-4.6-11.3-5.4-13.3h1.8c1.4,3.9,4.9,12.3,4.9,12.3v0.3l5.1-12.6h0.6
			l-6.1,14.9H115.4z"/>
		<path class="st2" d="M142.4,163.1c-0.5-1.4-1.3-3.4-2-5.1h-5.8l-2.1,5.1h-0.6l6.2-14.9h0.2c0,0,0.3,1,0.5,1.6
			c1.9,4.7,4.7,11.3,5.6,13.3H142.4z M140.2,157.3c-1.2-2.9-2.6-6.5-2.6-6.5v-0.3l-2.7,6.8H140.2z"/>
		<path class="st2" d="M159.2,163.1V149H154l0.2-0.6h12v0.6h-5.4c0,4.2,0,9.9,0,14.1H159.2z"/>
		<path class="st2" d="M178.8,163.1v-14.7h7.4l0.3,0.7c-1-0.1-6-0.1-6-0.1v6.4c1.1,0,3.8,0,5.1-0.1v0.8c-1.3-0.1-3-0.1-5.1-0.1
			l0,6.5c0,0,6,0.1,7.1-0.1l-0.3,0.7H178.8z"/>
		<path class="st2" d="M224.9,163.1c-0.6-1.1-2.7-4.6-3.9-6.6c-0.4,0-1.1,0.1-1.5,0l0.2-0.2c2.7,0,4.3-1.8,4.3-3.8
			c0-1.8-1.4-3.7-4.8-3.4l-0.1,0.1v13.9h-1.7c0-1.3,0-12.4,0-14.7h3.2c3.4,0,4.9,1.9,4.9,3.9c0,2-1,3.4-2.8,3.9
			c0.9,1.8,2.7,4.5,4.2,6.8H224.9z"/>
		<path class="st2" d="M239.7,163.1v-14.7h7.4l0.3,0.7c-1-0.1-6-0.1-6-0.1v6.4c1.1,0,3.8,0,5.1-0.1v0.8c-1.3-0.1-3-0.1-5.1-0.1
			l0,6.5c0,0,6,0.1,7.1-0.1l-0.3,0.7H239.7z"/>
		<path class="st2" d="M261.1,160.4c1,1.9,2.4,2.2,3.7,2.2c1.8,0,3.2-1.1,3.2-2.7c0-4.2-6.9-3.1-6.9-8c0-2.4,2.2-3.6,4.1-3.6
			c1.2,0,2.6,0.4,3.3,1.1l-0.5,1.2c-0.8-1.5-1.9-1.6-2.8-1.6c-1.4,0-2.7,0.7-2.7,2.3c0,4.2,7,2.9,7,7.9c0,2.7-2.1,4.2-4.5,4.2
			c-1.8,0-3.1-0.5-4.3-1.5L261.1,160.4z"/>
		<path class="st2" d="M283.1,163.1c0-1.3,0.1-12.4,0-14.7h1.6c0,4.2,0,10.5,0,14.7H283.1z"/>
		<path class="st2" d="M299.4,163.1c0-1.3,0-12.4,0-14.7h3.6c1.2,0,2.4,0,3.2,0.1c2,0.3,6.1,2.1,6.1,6.9c0,6.3-4.8,7.3-6.5,7.5
			c-1.3,0.2-3.7,0.1-4.7,0.1H299.4z M301,162.2c0.4,0.2,4.1,0.3,5.6-0.3c1.4-0.5,3.9-1.8,4-5.8c0.1-3-1.9-6.1-5-6.8
			c-1.2-0.3-3.7-0.2-4.6-0.2C301,153.3,301,158.1,301,162.2"/>
		<path class="st2" d="M325.6,163.1v-14.7h7.4l0.3,0.7c-1-0.1-6-0.1-6-0.1v6.4c1.1,0,3.8,0,5.1-0.1v0.8c-1.3-0.1-3-0.1-5.1-0.1
			l0,6.5c0,0,6,0.1,7.1-0.1l-0.3,0.7H325.6z"/>
		<path class="st2" d="M358.1,160.5c0-1.3,0-9.8,0-12.1h0.7c0,4.2-0.1,10.8,0,14.9c-1.6-1.7-10.9-13-10.9-13l0.2,0.5v12.3h-0.7
			c0-1.2,0-10.4,0-13.6l-0.1-1.1h0.9c0.9,1.2,9.8,11.7,9.8,11.7L358.1,160.5z"/>
		<path class="st2" d="M385,162.2c-1.4,0.6-3.6,1.1-5.1,1.1c-3.8,0-7.8-2.5-7.8-7.3c0-4.1,2.9-7.7,7.6-7.7c2.1,0,3.8,0.5,5.5,1.7
			l-0.5,1.4c-1.4-2.1-2.9-2.5-4.6-2.5c-4.1,0-6.1,3.7-6.1,7c0,4.2,2.7,6.7,6.4,6.7c1.6,0,3.6-0.8,4.8-1.9L385,162.2z"/>
		<path class="st2" d="M398.9,163.1v-14.7h7.4l0.3,0.7c-1-0.1-6-0.1-6-0.1v6.4c1.1,0,3.8,0,5.1-0.1v0.8c-1.3-0.1-3-0.1-5.1-0.1
			l0,6.5c0,0,6,0.1,7.1-0.1l-0.3,0.7H398.9z"/>
		<path class="st2" d="M420.3,160.4c1,1.9,2.4,2.2,3.7,2.2c1.8,0,3.2-1.1,3.2-2.7c0-4.2-6.9-3.1-6.9-8c0-2.4,2.2-3.6,4.1-3.6
			c1.2,0,2.6,0.4,3.3,1.1l-0.5,1.2c-0.8-1.5-1.9-1.6-2.8-1.6c-1.4,0-2.7,0.7-2.7,2.3c0,4.2,7,2.9,7,7.9c0,2.7-2.1,4.2-4.5,4.2
			c-1.8,0-3.1-0.5-4.3-1.5L420.3,160.4z"/>
	</g>
	<g>
		<path class="st2" d="M49.8,121.6V95.5h15l0.5,1.2c-1.9-0.2-12.6-0.2-12.6-0.2v11.3c1.9,0,6.8,0,9.1-0.2v1.4
			c-2.2-0.2-5.4-0.2-9.1-0.2l0,11.6c0,0,10.6,0.1,12.6-0.2l-0.5,1.3H49.8z"/>
		<path class="st2" d="M100.9,121.6c-0.6-2.8-2.4-7-3.1-8.9c-0.5-1.3,0.4,1.1-0.1-0.2H87.3c0,0-0.1,0.3-0.1,0.3
			c-2.1,5.7-3,8.8-3,8.8h-1.8l10.9-26.5h0.3c0,0,0.5,1.7,1,2.7c3.4,8.4,8.3,20,9.9,23.7H100.9z M97.2,111.3
			c-2.1-5.1-4.7-11.6-4.7-11.6v-0.5l-4.8,12.1H97.2z"/>
		<path class="st2" d="M137.8,121.6c-1.1-1.9-4.9-8.2-6.9-11.8c-0.7,0-1.9,0.2-2.7,0l0.3-0.3c4.7,0,7.6-3.1,7.6-6.8
			c0-3.2-2.6-6.5-8.6-6l-0.2,0.2v24.7h-2.9c0-2.3,0.1-22,0-26.1h5.7c6,0,8.8,3.4,8.8,6.9c0,3.6-1.8,6-5,7c1.7,3.1,4.8,7.9,7.5,12.2
			H137.8z"/>
		<path class="st2" d="M213.1,121.6c0-1.2,0-8,0-12.6h-13.9c0,2.8,0,8.5,0,12.6h-2.9c0-2.3,0.1-22,0-26.1h2.8v12.4h13.9
			c0-3.6,0-10.7,0-12.4h2.9v26.1H213.1z"/>
		<path class="st2" d="M237.7,121.6c0-2.3,0.1-22,0-26.1h2.9c0,7.4,0,18.7,0,26.1H237.7z"/>
		<path class="st2" d="M356.2,120.1c-2.5,1-6.4,1.9-9.1,1.9c-6.7,0-13.8-4.4-13.8-13c0-7.3,5.1-13.7,13.5-13.7
			c3.8,0,6.7,0.9,9.8,3.1l-0.9,2.5c-2.4-3.7-5.1-4.4-8.2-4.4c-7.3,0-10.8,6.6-10.8,12.5c0,7.4,4.9,12,11.4,12c2.8,0,6.4-1.5,8.6-3.3
			L356.2,120.1z"/>
		<path class="st2" d="M413.9,116.8c1.8,3.4,4.3,4,6.6,4c3.2,0,5.6-1.9,5.6-4.9c0-7.4-12.2-5.4-12.2-14.1c0-4.3,3.9-6.4,7.2-6.4
			c2.1,0,4.6,0.7,5.9,1.9l-1,2.1c-1.5-2.6-3.4-2.9-5-2.9c-2.4,0-4.8,1.2-4.8,4.1c0,7.4,12.4,5.2,12.4,13.9c0,4.7-3.8,7.5-7.9,7.5
			c-3.2,0-5.5-0.9-7.6-2.7L413.9,116.8z"/>
		<path class="st2" d="M178.1,95.5h-12.8h-0.1h-9.4l-0.6,1.4c3.5-0.4,8.2-0.3,9.8-0.3c0,0,0,0,0,0h0.3v25h2.9c0-7.4,0-17.5,0-25
			c0,0,6.1-0.1,10.3,0.3L178.1,95.5z"/>
		<path class="st2" d="M282.3,95.5h-12.8h-0.1h-9.4l-0.6,1.4c3.5-0.4,8.2-0.3,9.8-0.3c0,0,0,0,0,0h0.3v25h2.9c0-7.4,0-17.5,0-25
			c0,0,6.1-0.1,10.3,0.3L282.3,95.5z"/>
		<path class="st2" d="M300.3,121.6V95.5h15l0.5,1.2c-1.9-0.2-12.6-0.2-12.6-0.2v11.3c1.9,0,6.8,0,9.1-0.2v1.4
			c-2.2-0.2-5.4-0.2-9.1-0.2l0,11.6c0,0,10.6,0.1,12.6-0.2l-0.5,1.3H300.3z"/>
		<path class="st2" d="M396.7,95.5H384h-0.1h-9.4l-0.6,1.4c3.5-0.4,8.2-0.3,9.8-0.3c0,0,0,0,0,0h0.3v25h2.9c0-7.4,0-17.5,0-25
			c0,0,6.1-0.1,10.3,0.3L396.7,95.5z"/>
	</g>
</g>
</svg>
